<svg width="152" height="152" viewBox="0 0 152 152" fill="none" xmlns="http://www.w3.org/2000/svg">
<rect width="152" height="152" fill="white"/>
<path d="M103 88C103 86.5 101.5 85 100 85C98.3125 85 97 86.5 97 88V94H103V88ZM122.312 109.75L118 107.5V103C118 101.5 116.5 100 115 100H114.625L114.25 84.625L118.75 80.6875C120.062 79.75 121 78.0625 121 76.1875V61C121 59.5 119.5 58 118 58H82C80.3125 58 79 59.5 79 61V76.1875C79 78.0625 79.75 79.75 81.0625 80.6875L85.5625 84.625L85.1875 100H85C83.3125 100 82 101.5 82 103V107.5L77.5 109.75C76.5625 110.312 76 111.25 76 112.375C76 111.25 75.25 110.312 74.3125 109.75L70 107.5V103C70 101.5 68.5 100 67 100H65.6875C64.5625 94.375 64 88.75 64 82.9375V76H68.5C69.25 76 70 75.4375 70 74.5V71.5C70 70.75 69.25 70 68.5 70H65.3125L71.125 54.25C71.5 53.5 71.5 52.75 71.5 52.1875C71.5 48.8125 68.875 46.1875 65.5 46.1875V46H55V40H59.5C60.25 40 61 39.4375 61 38.5V35.5C61 34.75 60.25 34 59.5 34H55V29.5C55 28.75 54.25 28 53.5 28H50.5C49.5625 28 49 28.75 49 29.5V34H44.5C43.5625 34 43 34.75 43 35.5V38.5C43 39.4375 43.5625 40 44.5 40H49V46H38.3125C34.9375 46 32.3125 48.8125 32.3125 52C32.3125 52.75 32.3125 53.5 32.6875 54.25L38.5 70H35.5C34.5625 70 34 70.75 34 71.5V74.5C34 75.4375 34.5625 76 35.5 76H40V82.9375C40 88.75 39.25 94.375 38.125 100H37C35.3125 100 34 101.5 34 103V107.5L29.5 109.75C28.75 110.125 28.375 110.875 28.1875 111.812C28 112 28 112.188 28 112.375V121C28 122.688 29.3125 124 31 124H73C74.5 124 76 122.688 76 121C76 122.688 77.3125 124 79 124H121C122.5 124 124 122.688 124 121V112.375C124 111.25 123.25 110.312 122.312 109.75ZM38.3125 52H65.5L58.75 70H45.0625L38.3125 52ZM59.5 100H44.3125C45.25 94.5625 45.8125 88.75 46 82.9375V76H58V82.9375C58 88.75 58.5625 94.5625 59.5 100ZM70 118H34V114.25L40 111.25V106H64V111.25L70 114.25V118ZM85 76.1875V64H91V70H97V64H103V70H109V64H115V76.1875L110.312 80.125L108.062 82L108.25 84.8125L108.625 100H91.1875L91.5625 84.8125L91.75 82L89.5 80.125L85 76.1875ZM118 118H82V114.25L88 111.25V106H112V111.25L118 114.25V118Z" fill="#E74011"/>
</svg>
