<svg width="152" height="152" viewBox="0 0 152 152" fill="none" xmlns="http://www.w3.org/2000/svg">
<rect width="152" height="152" fill="white"/>
<path d="M87.1875 46.5625L91.6875 56.6875L74.25 73.9375C73.125 75.0625 73.125 77.125 74.25 78.25C74.8125 78.8125 75.5625 79 76.3125 79C77.25 79 78 78.8125 78.5625 78.25L95.8125 60.8125L105.938 65.3125C106.312 65.5 106.688 65.5 107.062 65.5C108.188 65.5 109.125 65.125 109.875 64.375L121.688 52.5625C123.75 50.5 123 47.125 120.188 46.1875L109.875 42.625L106.312 32.3125C105.75 30.625 104.25 29.5 102.75 29.5C101.812 29.5 100.688 29.875 99.9375 30.8125L88.125 42.625C87.375 43.375 86.8125 44.3125 86.8125 45.4375C86.8125 45.8125 87 46.1875 87.1875 46.5625ZM101.812 37.375L104.062 44.5L105 47.5L108 48.4375L115.125 50.6875L106.688 59.125L97.5 55L93.375 45.8125L101.812 37.375ZM120.75 62.125L115.875 67C116.438 69.8125 117 73 117 76C117 98.5 98.8125 116.5 76.5 116.5C54 116.5 36 98.5 36 76C36 53.6875 54 35.5 76.5 35.5C79.5 35.5 82.6875 36.0625 85.5 36.625L90.375 31.75C86.0625 30.4375 81.375 29.6875 76.5 29.6875V29.5C50.8125 29.5 30 50.5 30 76C30 101.688 50.8125 122.5 76.5 122.5C102 122.5 123 101.688 123 76C123 71.125 122.062 66.4375 120.75 62.125ZM81.375 48.4375C81.1875 47.6875 81 46.75 81 45.8125C79.5 45.625 78 45.25 76.5 45.25C59.4375 45.25 45.75 59.125 45.75 76C45.75 93.0625 59.4375 106.75 76.5 106.75C93.375 106.75 107.25 93.0625 107.25 76C107.25 74.5 106.875 73 106.688 71.5C105.75 71.5 104.812 71.3125 104.062 71.125C103.688 70.9375 104.25 71.125 100.125 69.4375C100.688 71.5 101.25 73.75 101.25 76C101.25 89.6875 90 100.75 76.5 100.75C62.8125 100.75 51.75 89.6875 51.75 76C51.75 62.5 62.8125 51.25 76.5 51.25C78.75 51.25 81 51.8125 83.0625 52.375C81.375 48.25 81.5625 48.8125 81.375 48.4375ZM76.5 61C68.0625 61 61.5 67.75 61.5 76C61.5 84.4375 68.0625 91 76.5 91C84.75 91 91.5 84.4375 91.5 76C91.5 75.4375 91.3125 74.6875 91.125 73.9375L82.6875 82.375C81.1875 84.0625 78.9375 85 76.5 85C71.4375 85 67.5 81.0625 67.5 76C67.5 73.5625 68.4375 71.3125 70.125 69.8125L78.5625 61.375C77.8125 61.1875 77.0625 61 76.5 61Z" fill="#E74011"/>
</svg>
