<svg width="152" height="152" viewBox="0 0 152 152" fill="none" xmlns="http://www.w3.org/2000/svg">
<rect width="152" height="152" fill="white"/>
<path d="M68.875 80.125L70.9375 78.0625C71.5 77.5 71.5 76.5625 70.9375 76L62.125 67L70.9375 58.1875C71.5 57.625 71.5 56.6875 70.9375 56.125L68.875 54.0625C68.3125 53.5 67.375 53.5 66.8125 54.0625L54.8125 66.0625C54.0625 66.625 54.0625 67.5625 54.8125 68.125L66.8125 80.125C67.375 80.6875 68.3125 80.6875 68.875 80.125ZM86.875 78.0625L88.9375 80.125C89.5 80.6875 90.4375 80.6875 91 80.125L103 68.125C103.75 67.5625 103.75 66.625 103 66.0625L91 54.0625C90.4375 53.5 89.5 53.5 88.9375 54.0625L86.875 56.125C86.3125 56.6875 86.3125 57.625 86.875 58.1875L95.6875 67L86.875 76C86.5 76.1875 86.5 76.5625 86.5 76.9375C86.5 77.3125 86.5 77.6875 86.875 78.0625ZM136 97H127V46C127 39.4375 121.562 34 115 34H43C36.25 34 31 39.4375 31 46V97H22C20.3125 97 19 98.5 19 100V109C19 117.438 25.5625 124 34 124H124C132.25 124 139 117.438 139 109V100C139 98.5 137.5 97 136 97ZM37 46C37 42.8125 39.625 40 43 40H115C118.188 40 121 42.8125 121 46V97H92.3125C91.5625 97 91 97.75 90.8125 98.5C90.0625 101.125 87.8125 103 85 103H73C70 103 67.75 101.125 67 98.5C66.8125 97.75 66.25 97 65.5 97H37V46ZM133 109C133 114.062 128.875 118 124 118H34C28.9375 118 25 114.062 25 109V103H61.375C62.6875 106.562 66.0625 109 70 109H88C91.75 109 95.125 106.562 96.4375 103H133V109Z" fill="#E74011"/>
</svg>
