<svg width="152" height="152" viewBox="0 0 152 152" fill="none" xmlns="http://www.w3.org/2000/svg">
<rect width="152" height="152" fill="white"/>
<path d="M130 28H46C42.625 28 40 30.625 40 33.625V52H64V34H112V88H106V94H130C133.188 94 136 91.5625 136 88.5625V33.625C136 30.625 133.188 28 130 28ZM58 46H46V34H58V46ZM130 88H118V76H130V88ZM130 70H118V52H130V70ZM130 46H118V34H130V46ZM94 58H22C18.625 58 16 60.8125 16 64V118C16 121.375 18.625 124 22 124H94C97.1875 124 100 121.375 100 118V64C100 60.8125 97.1875 58 94 58ZM94 118H22V113.5L37.1875 102.062L52.1875 109.562L76 91.75L94 103.75V118ZM94 96.4375L75.8125 84.4375L51.625 102.625L36.625 95.125L22 106V64H94V96.4375ZM37 88C41.875 88 46 84.0625 46 79C46 74.125 41.875 70 37 70C31.9375 70 28 74.125 28 79C28 84.0625 31.9375 88 37 88ZM37 76C38.5 76 40 77.5 40 79C40 80.6875 38.5 82 37 82C35.3125 82 34 80.6875 34 79C34 77.5 35.3125 76 37 76Z" fill="#E74011"/>
</svg>
