<svg width="152" height="152" viewBox="0 0 152 152" fill="none" xmlns="http://www.w3.org/2000/svg">
<rect width="152" height="152" fill="white"/>
<path d="M131.875 50.3125L119.688 30.8125C118.562 29.125 116.688 28 114.625 28H38.875C36.8125 28 34.75 29.125 33.625 30.8125L21.625 50.3125C16 59.125 19.75 71.125 28.75 74.875V117.438C28.75 121.188 31.375 124 34.75 124H118.75C121.938 124 124.75 121.188 124.75 117.438V74.875C133.75 71.125 137.312 59.125 131.875 50.3125ZM118.75 117.438C118.75 117.812 118.562 118 118.562 118L34.9375 118.188C34.75 118.188 34.75 117.812 34.75 117.438V94H118.75V117.438ZM34.75 88V76H35.125C40.75 76 45.625 73.5625 49 69.8125C52.375 73.5625 57.25 76 62.875 76C68.3125 76 73.1875 73.5625 76.5625 69.8125C79.9375 73.5625 85 76 90.4375 76C96.0625 76 100.938 73.5625 104.312 69.8125C107.688 73.5625 112.562 76 118.188 76H118.562V88H34.75ZM127.375 64.375C125.875 67.5625 123.25 69.4375 119.875 70C119.312 70 118.75 70 118.188 70C114.625 70 111.25 68.5 108.812 65.875L104.312 60.8125L99.8125 65.875C97.375 68.6875 94.1875 70.1875 90.4375 70.1875C86.875 70.1875 83.5 68.6875 81.0625 65.875L76.75 60.8125L72.25 65.875C69.8125 68.6875 66.4375 70.1875 62.875 70.1875C59.125 70.1875 55.9375 68.6875 53.5 65.875L49 60.8125L44.5 65.875C42.0625 68.6875 38.6875 70.1875 35.125 70.1875C34.5625 70.1875 34 70 33.4375 70C30.0625 69.625 27.4375 67.5625 25.9375 64.375C24.4375 61 24.625 56.6875 26.6875 53.5L38.875 34H114.625L126.625 53.5C128.688 56.6875 128.875 60.8125 127.375 64.375Z" fill="#E74011"/>
</svg>
