<svg width="152" height="152" viewBox="0 0 152 152" fill="none" xmlns="http://www.w3.org/2000/svg">
<rect width="152" height="152" fill="white"/>
<path d="M92.5 42.0625C81.8125 42.0625 73.375 35.5 60.25 35.5C55 35.5 50.125 36.625 45.8125 38.3125C46.5625 32.6875 42.0625 27.8125 36.625 28.1875C31.9375 28.1875 28.1875 31.9375 28 36.625C27.625 40.75 30.25 44.3125 34 45.625V121.75C34 123.062 34.9375 124 36.25 124H37.75C38.875 124 40 123.062 40 121.75V99.0625C45.8125 96.25 53.5 93.625 65.3125 93.625C76 93.625 84.4375 100.188 97.5625 100.188C107.125 100.188 114.812 96.8125 121.938 92.125C123.25 91.1875 124 89.875 124 88.375V39.25C124 35.875 120.438 33.8125 117.438 35.125C110.688 38.3125 101.312 42.0625 92.5 42.0625ZM37 33.25C39.0625 33.25 40.75 34.9375 40.75 37C40.75 39.25 39.0625 40.75 37 40.75C34.75 40.75 33.25 39.25 33.25 37C33.25 34.9375 34.75 33.25 37 33.25ZM118 87.625C113.5 90.8125 105.812 94 97.5625 94C85.5625 94 77.3125 87.625 65.3125 87.625C56.6875 87.625 46.1875 89.5 40 92.5V48.0625C44.3125 44.875 52 41.5 60.25 41.5C72.25 41.5 80.5 48.0625 92.5 48.0625C101.125 48.0625 111.625 44.5 118 41.5V87.625Z" fill="#E74011"/>
</svg>
