<svg width="152" height="152" viewBox="0 0 152 152" fill="none" xmlns="http://www.w3.org/2000/svg">
<rect width="152" height="152" fill="white"/>
<path d="M28 84.25C28 86.5 29.5 88 31.75 88C33.8125 88 35.5 86.5 35.5 84.25C35.5 82.1875 33.8125 80.5 31.75 80.5C29.5 80.5 28 82.1875 28 84.25ZM22 93.625L21.8125 76H61.1875L62.6875 70H55V52H82V55H88V41.3125C88 33.8125 72.0625 28 52 28C31.9375 28 16 33.8125 16 41.3125V93.625C16 97.1875 18.8125 100 22.375 100H22V109C22 110.688 23.3125 112 25 112H28C29.5 112 31 110.688 31 109V100H52V96.0625C52 95.5 52 94.75 52.1875 94H22.375C22.1875 94 22 93.8125 22 93.625ZM49 70H22V52H49V70ZM21.8125 41.5C22.75 39.4375 32.875 34 52 34C70.9375 34 81.0625 39.4375 82 41.3125V46H21.8125V41.5ZM127.562 83.3125L124.562 70.375C123.438 65.125 118.562 61.1875 112.938 61.1875V61H80.5H80.3125C74.6875 61 70 65.125 68.6875 70.375L65.6875 83.6875C61.1875 85.9375 58 90.625 58 96.0625V106.375C58 110.312 60.4375 113.5 64 114.625V121C64 122.688 65.3125 124 67 124H70C71.5 124 73 122.688 73 121V115H121V121C121 122.688 122.312 124 124 124H127C128.5 124 130 122.688 130 121V114.625C133.375 113.5 135.812 110.312 136 106.375V96.0625C135.812 90.4375 132.438 85.375 127.562 83.3125ZM74.5 71.6875C75.25 69.0625 77.5 67.1875 80.5 67H112.938C115.75 67.1875 118.188 69.0625 118.75 71.6875L121.188 82H72.25L74.5 71.6875ZM130 106.375C129.812 107.875 128.688 109 127.188 109H66.625C65.125 109 64 107.875 64 106.375V96.0625C64 91.75 67.5625 88.1875 71.875 88H121.938C126.25 88.1875 129.812 91.75 130 96.0625V106.375ZM73.75 94C71.5 94 70 95.6875 70 97.75C70 100 71.5 101.5 73.75 101.5C75.8125 101.5 77.5 100 77.5 97.75C77.5 95.6875 75.8125 94 73.75 94ZM120.25 94C118 94 116.5 95.6875 116.5 97.75C116.5 100 118 101.5 120.25 101.5C122.312 101.5 124 100 124 97.75C124 95.6875 122.312 94 120.25 94Z" fill="#E74011"/>
</svg>
