<svg width="152" height="152" viewBox="0 0 152 152" fill="none" xmlns="http://www.w3.org/2000/svg">
<rect width="152" height="152" fill="white"/>
<path d="M127 34C126.625 34 126.25 34.1875 125.875 34.375L94 46L61.75 34.75C60.4375 34.375 59.125 34.1875 57.8125 34C56.6875 34 55.375 34.375 54.0625 34.75L25.75 44.5C23.5 45.4375 22 47.6875 22 50.125V115C22 116.875 23.3125 118 24.8125 118C25.1875 118 25.5625 118 25.9375 117.812L58 106L90.25 117.438C91.375 117.812 92.6875 118 94 118C95.3125 118 96.4375 117.812 97.75 117.438L126.062 107.688C128.312 106.75 130 104.5 130 102.062V37.1875C130 35.3125 128.5 34 127 34ZM27.625 50.3125L55 40.75V100.75L27.8125 110.875L27.625 50.3125ZM61 100.75V40.75L91 51.4375V111.438L61 100.75ZM97 111.438V51.4375L124 41.3125L124.188 101.875L97 111.438Z" fill="#E74011"/>
</svg>
