<svg width="152" height="153" viewBox="0 0 152 153" fill="none" xmlns="http://www.w3.org/2000/svg">
<rect width="152" height="152" transform="translate(0 0.5)" fill="white"/>
<path d="M113.125 72.375L71.125 30.375C70 29.25 68.5 28.5 67 28.5C65.3125 28.5 63.8125 29.25 62.6875 30.375L20.6875 72.375C18.25 74.625 18.25 78.5625 20.6875 80.8125L62.6875 122.812C63.8125 123.938 65.3125 124.5 67 124.5C68.5 124.5 70 123.938 71.125 122.812L113.125 80.8125C115.562 78.5625 115.562 74.625 113.125 72.375ZM66.8125 118.5L25 76.5L66.8125 34.6875C66.8125 34.6875 66.8125 34.5 67 34.5V34.6875L108.812 76.6875L66.8125 118.5ZM80.875 70.5H58C52.9375 70.5 49 74.625 49 79.5V87C49 87.9375 49.5625 88.5 50.5 88.5H53.5C54.25 88.5 55 87.9375 55 87V79.5C55 78 56.3125 76.5 58 76.5H80.875L70.75 86.0625C70.1875 86.625 70 87.5625 70.5625 88.125L72.625 90.375C73.1875 90.9375 74.125 90.9375 74.6875 90.375L89.5 76.875C90.4375 76.125 91 74.8125 91 73.5C91 72.375 90.4375 71.0625 89.5 70.3125L74.6875 56.8125C74.125 56.25 73.1875 56.25 72.625 56.8125L70.5625 59.0625C70 59.625 70.1875 60.5625 70.75 61.125L80.875 70.5Z" fill="#E74011"/>
</svg>
