<svg width="152" height="152" viewBox="0 0 152 152" fill="none" xmlns="http://www.w3.org/2000/svg">
<rect width="152" height="152" fill="white"/>
<path d="M110.688 64C112.188 64 113.688 63.25 115 61.9375L123.062 51.8125C124.188 50.3125 124.188 47.875 123.062 46.375L115 36.25C113.875 34.9375 112.188 34 110.688 34H79V29.5C79 28.75 78.25 28 77.5 28H74.5C73.5625 28 73 28.75 73 29.5V34H38.5C35.875 34 34 36.625 34 39.625V58.375C34 61.5625 35.875 64 38.5 64H73V70H41.125C39.625 70 38.125 70.9375 37 72.25L28.75 82.375C27.625 83.875 27.625 86.3125 28.75 87.8125L37 97.9375C38.125 99.25 39.625 100 41.125 100H73V122.5C73 123.438 73.5625 124 74.5 124H77.5C78.25 124 79 123.438 79 122.5V100H113.5C115.938 100 118 97.5625 118 94.375V75.625C118 72.625 115.938 70 113.5 70H79V64H110.688ZM111.812 94H41.5L34.375 85L41.5 76H111.812V94ZM40 40H110.312L117.438 49L110.312 58H40V40Z" fill="#E74011"/>
</svg>
