<svg width="152" height="153" viewBox="0 0 152 153" fill="none" xmlns="http://www.w3.org/2000/svg">
<rect width="152" height="152" transform="translate(0 0.5)" fill="white"/>
<path d="M97.9375 28.5C93.625 28.5 89.3125 30.1875 85.9375 33.5625L84.8125 34.6875L80.3125 30.375C78.0625 27.9375 74.125 27.9375 71.875 30.375L47.5 54.75C46.9375 55.3125 46.9375 56.25 47.5 56.8125L49.5625 59.0625C50.125 59.625 51.0625 59.625 51.625 59.0625L76.1875 34.5L80.5 39L36.4375 83.0625C26.875 92.625 20.5 105.375 19 119.625C18.625 122.25 20.6875 124.5 23.3125 124.5C23.5 124.5 23.6875 124.5 23.875 124.5C38.125 123 50.875 116.625 60.4375 107.062L109.938 57.5625C120.625 46.875 112.938 28.5 97.9375 28.5ZM56.3125 102.75C47.875 111.188 36.8125 116.625 25.1875 118.312C26.875 106.688 32.3125 95.625 40.75 87.1875L55.5625 72.375L71.125 87.9375L56.3125 102.75ZM105.625 53.25L75.25 83.8125L59.6875 68.25L90.25 37.875C92.3125 35.8125 94.9375 34.5 97.9375 34.5C103.938 34.5 108.812 39.5625 108.812 45.5625C108.812 48.5625 107.688 51.1875 105.625 53.25Z" fill="#E74011"/>
</svg>
