<svg width="152" height="152" viewBox="0 0 152 152" fill="none" xmlns="http://www.w3.org/2000/svg">
<rect width="152" height="152" fill="white"/>
<path d="M109 64H106V48.625C106 46.9375 105.25 45.4375 104.125 44.3125L89.6875 29.875C88.5625 28.75 87.0625 28 85.375 28H51.625C48.4375 28 46 30.8125 46 34V64H43C34.5625 64 28 70.75 28 79V97C28 98.6875 29.3125 100 31 100H46V121C46 122.688 47.3125 124 49 124H103C104.5 124 106 122.688 106 121V100H121C122.5 100 124 98.6875 124 97V79C124 70.75 117.25 64 109 64ZM88 36.625L97.375 46H88V36.625ZM52 34H82V46C82 49.375 84.625 52 88 52H100V64H52V34ZM100 118H52V100H100V118ZM118 94H34V79C34 74.125 37.9375 70 43 70H109C113.875 70 118 74.125 118 79V94ZM103 77.5C100.375 77.5 98.5 79.5625 98.5 82C98.5 84.625 100.375 86.5 103 86.5C105.438 86.5 107.5 84.625 107.5 82C107.5 79.5625 105.438 77.5 103 77.5Z" fill="#E74011"/>
</svg>
