<?xml version="1.0" encoding="UTF-8" ?>
<svg width="152" height="153" viewBox="0 0 152 153" fill="none" xmlns="http://www.w3.org/2000/svg">
<rect width="152" height="152" transform="translate(0 0.5)" fill="white"/>
<path d="M76 60.375C70.5625 60.5625 66.0625 62.25 62.5 65.8125C59.125 69.1875 57.25 73.6875 57.4375 78.375C57.625 87.75 56.6875 97.3125 54.8125 106.312C54.4375 108 55.5625 109.688 57.0625 109.875C58.75 110.25 60.25 109.312 60.625 107.625C62.6875 98.0625 63.625 88.125 63.4375 78.375C63.4375 75.1875 64.5625 72.1875 66.8125 69.9375C70.1875 66.5625 74.6875 66.375 76 66.375C82.9375 66.5625 88.375 72.1875 88.375 78.75C88.5625 88.3125 88 97.6875 86.3125 107.062C86.125 108.562 87.25 110.062 88.9375 110.438C88.9375 110.438 89.125 110.438 89.3125 110.438C90.8125 110.438 92.125 109.5 92.3125 108C93.8125 98.4375 94.5625 88.5 94.5625 78.75C94.375 68.8125 86.125 60.5625 76 60.375ZM75.8125 76.6875C74.3125 76.6875 73 78 73 79.6875C73.1875 93.375 71.3125 106.875 67.75 120L67.5625 120.75C67.1875 122.062 67.75 124.5 70.375 124.5C71.6875 124.5 72.8125 123.75 73.1875 122.438L73.5625 121.5C77.3125 107.812 79.1875 93.9375 79 79.5C79 77.8125 77.3125 76.5 75.8125 76.6875ZM49 56.625C44.3125 62.4375 41.6875 69.75 41.875 77.25C42.0625 84.75 41.3125 92.25 40 99.375C39.8125 101.062 40.9375 102.562 42.4375 102.938C42.625 102.938 42.8125 102.938 43 102.938C44.5 102.938 45.8125 101.812 46 100.5C47.3125 92.8125 48.0625 85.125 47.875 77.25C47.875 71.0625 49.75 65.25 53.6875 60.375C54.8125 59.25 54.625 57.375 53.3125 56.25C52 55.125 50.125 55.3125 49 56.625ZM123.812 75.9375C123.812 72.9375 123.438 69.75 122.875 66.75C122.5 65.25 120.812 64.125 119.312 64.5C117.625 64.875 116.5 66.375 116.875 68.0625C117.438 70.6875 117.812 73.3125 117.812 76.125C118 77.4375 118 78.9375 117.812 80.4375C117.812 82.125 119.312 83.4375 120.812 83.4375C122.5 83.4375 123.812 82.125 123.812 80.4375C124 78.9375 124 77.4375 123.812 75.9375ZM75.25 28.6875C62.125 28.3125 50.125 33.1875 41.125 42.1875C32.5 51 27.8125 62.4375 28 74.8125C28 76.125 28 77.625 28 78.9375C27.8125 80.625 29.125 82.125 30.8125 82.125H31C32.5 82.125 33.8125 80.8125 34 79.125C34 77.625 34 76.125 34 74.625C33.8125 63.9375 37.75 54 45.25 46.5C53.125 38.625 63.8125 34.5 75.25 34.6875C89.125 34.875 102.25 41.8125 110.312 53.25C111.25 54.5625 113.125 54.9375 114.625 54C115.938 53.0625 116.312 51.1875 115.375 49.6875C106.188 36.75 91.1875 28.875 75.25 28.6875ZM75.4375 44.4375C75.25 44.4375 75.0625 44.4375 74.875 44.4375C72.25 44.4375 69.625 44.8125 67 45.375C65.5 45.75 64.375 47.4375 64.75 49.125C65.125 50.625 66.8125 51.75 68.5 51.375C70.75 50.8125 73.1875 50.4375 75.4375 50.4375C91 50.8125 103.75 63.1875 103.938 78.1875C104.125 85.6875 103.75 93.1875 102.812 100.5C102.625 102.188 103.938 103.688 105.625 103.875H105.812C107.312 103.875 108.625 102.75 108.812 101.25C109.75 93.5625 110.125 85.875 109.938 78.1875C109.75 59.8125 94.1875 44.8125 75.4375 44.4375Z" fill="#E74011"/>
</svg>
