<?xml version="1.0" encoding="UTF-8" ?>
<svg width="152" height="153" viewBox="0 0 152 153" fill="none" xmlns="http://www.w3.org/2000/svg">
<rect width="152" height="152" transform="translate(0 0.5)" fill="white"/>
<path d="M125.5 40.5H38.5C35.875 40.5 34 42.5625 34 45V46.5H26.5C23.875 46.5 22 48.5625 22 51V103.5C22 108.562 25.9375 112.5 31 112.5H125.5C127.938 112.5 130 110.625 130 108V45C130 42.5625 127.938 40.5 125.5 40.5ZM28 103.5V52.5H34V103.5C34 105.188 32.5 106.5 31 106.5C29.3125 106.5 28 105.188 28 103.5ZM124 106.5H39.4375C39.8125 105.75 39.8125 104.625 39.8125 103.688C39.8125 103.688 40 103.688 40 103.5V46.5H124V106.5ZM48.25 88.5H79.75C80.875 88.5 82 87.5625 82 86.25V54.75C82 53.625 80.875 52.5 79.75 52.5H48.25C46.9375 52.5 46 53.625 46 54.75V86.25C46 87.5625 46.9375 88.5 48.25 88.5ZM52 58.5H76V82.5H52V58.5ZM46 98.25C46 99.5625 46.9375 100.5 48.25 100.5H79.75C80.875 100.5 82 99.5625 82 98.25V96.75C82 95.625 80.875 94.5 79.75 94.5H48.25C46.9375 94.5 46 95.625 46 96.75V98.25ZM88 98.25C88 99.5625 88.9375 100.5 90.25 100.5H115.75C116.875 100.5 118 99.5625 118 98.25V96.75C118 95.625 116.875 94.5 115.75 94.5H90.25C88.9375 94.5 88 95.625 88 96.75V98.25ZM88 86.25C88 87.5625 88.9375 88.5 90.25 88.5H115.75C116.875 88.5 118 87.5625 118 86.25V84.75C118 83.625 116.875 82.5 115.75 82.5H90.25C88.9375 82.5 88 83.625 88 84.75V86.25ZM88 62.25C88 63.5625 88.9375 64.5 90.25 64.5H115.75C116.875 64.5 118 63.5625 118 62.25V60.75C118 59.625 116.875 58.5 115.75 58.5H90.25C88.9375 58.5 88 59.625 88 60.75V62.25ZM88 74.25C88 75.5625 88.9375 76.5 90.25 76.5H115.75C116.875 76.5 118 75.5625 118 74.25V72.75C118 71.625 116.875 70.5 115.75 70.5H90.25C88.9375 70.5 88 71.625 88 72.75V74.25Z" fill="#E74011"/>
</svg>
