<?xml version="1.0" encoding="UTF-8" ?>
<svg width="152" height="153" viewBox="0 0 152 153" fill="none" xmlns="http://www.w3.org/2000/svg">
<rect width="152" height="152" transform="translate(0 0.5)" fill="white"/>
<path d="M89.5 49.125L98.6875 53.8125L103.188 62.8125C103.75 63.75 104.688 64.5 106 64.5C107.125 64.5 108.062 63.75 108.625 62.8125L113.125 53.8125L122.312 49.125C123.25 48.75 124 47.625 124 46.5C124 45.375 123.25 44.25 122.312 43.875L113.125 39.1875L108.625 30.1875C107.5 28.125 104.312 28.125 103.188 30.1875L98.6875 39.1875L89.5 43.875C88.5625 44.25 87.8125 45.375 87.8125 46.5C87.8125 47.625 88.5625 48.75 89.5 49.125ZM102.25 44.0625C102.812 43.875 103.375 43.3125 103.562 42.75L106 38.25L108.25 42.75C108.438 43.3125 109 43.875 109.562 44.0625L114.25 46.5L109.562 48.75C109 49.125 108.438 49.5 108.25 50.0625L106 54.75L103.562 50.0625C103.375 49.5 102.812 49.125 102.25 48.75L97.5625 46.5L102.25 44.0625ZM122.312 103.875L113.125 99.375L108.625 90.1875C107.5 88.125 104.312 88.125 103.188 90.1875L98.6875 99.375L89.5 103.875C88.5625 104.438 87.8125 105.375 87.8125 106.5C87.8125 107.812 88.5625 108.75 89.5 109.312L98.6875 113.812L103.188 123C103.75 123.938 104.688 124.5 106 124.5C107.125 124.5 108.062 123.938 108.625 123L113.125 113.812L122.312 109.312C123.25 108.75 124 107.812 124 106.5C124 105.375 123.25 104.438 122.312 103.875ZM109.562 108.938C109 109.125 108.438 109.688 108.25 110.25L106 114.938L103.562 110.25C103.375 109.688 102.812 109.125 102.25 108.938L97.5625 106.5L102.25 104.25C102.812 103.875 103.375 103.5 103.562 102.938L106 98.25L108.25 102.938C108.438 103.5 109 103.875 109.562 104.25L114.25 106.5L109.562 108.938ZM100 76.5C99.8125 75.375 99.25 74.25 98.3125 73.875L77.125 63.1875L66.625 42.1875C65.5 40.125 62.3125 40.125 61.1875 42.1875L50.6875 63.1875L29.5 73.875C28.5625 74.25 27.8125 75.375 27.8125 76.5C27.8125 77.625 28.5625 78.75 29.5 79.125L50.6875 89.8125L61.1875 111C61.75 111.938 62.6875 112.5 64 112.5C65.125 112.5 66.0625 111.938 66.625 111L77.125 89.8125L98.3125 79.125C99.25 78.75 99.8125 77.625 100 76.5ZM73.5625 84.9375C73 85.125 72.4375 85.6875 72.25 86.25L64 102.938L55.5625 86.25C55.375 85.6875 54.8125 85.125 54.25 84.9375L37.5625 76.5L54.25 68.25C54.8125 67.875 55.375 67.5 55.5625 66.9375L64 50.25L72.25 66.9375C72.4375 67.5 73 67.875 73.5625 68.25L90.25 76.5L73.5625 84.9375Z" fill="#E74011"/>
</svg>
