<?xml version="1.0" encoding="UTF-8" ?>
<svg width="152" height="153" viewBox="0 0 152 153" fill="none" xmlns="http://www.w3.org/2000/svg">
<rect width="152" height="152" transform="translate(0 0.5)" fill="white"/>
<path d="M87.1875 47.0625L91.6875 57.1875L74.25 74.4375C73.125 75.5625 73.125 77.625 74.25 78.75C74.8125 79.3125 75.5625 79.5 76.3125 79.5C77.25 79.5 78 79.3125 78.5625 78.75L95.8125 61.3125L105.938 65.8125C106.312 66 106.688 66 107.062 66C108.188 66 109.125 65.625 109.875 64.875L121.688 53.0625C123.75 51 123 47.625 120.188 46.6875L109.875 43.125L106.312 32.8125C105.75 31.125 104.25 30 102.75 30C101.812 30 100.688 30.375 99.9375 31.3125L88.125 43.125C87.375 43.875 86.8125 44.8125 86.8125 45.9375C86.8125 46.3125 87 46.6875 87.1875 47.0625ZM101.812 37.875L104.062 45L105 48L108 48.9375L115.125 51.1875L106.688 59.625L97.5 55.5L93.375 46.3125L101.812 37.875ZM120.75 62.625L115.875 67.5C116.438 70.3125 117 73.5 117 76.5C117 99 98.8125 117 76.5 117C54 117 36 99 36 76.5C36 54.1875 54 36 76.5 36C79.5 36 82.6875 36.5625 85.5 37.125L90.375 32.25C86.0625 30.9375 81.375 30.1875 76.5 30.1875V30C50.8125 30 30 51 30 76.5C30 102.188 50.8125 123 76.5 123C102 123 123 102.188 123 76.5C123 71.625 122.062 66.9375 120.75 62.625ZM81.375 48.9375C81.1875 48.1875 81 47.25 81 46.3125C79.5 46.125 78 45.75 76.5 45.75C59.4375 45.75 45.75 59.625 45.75 76.5C45.75 93.5625 59.4375 107.25 76.5 107.25C93.375 107.25 107.25 93.5625 107.25 76.5C107.25 75 106.875 73.5 106.688 72C105.75 72 104.812 71.8125 104.062 71.625C103.688 71.4375 104.25 71.625 100.125 69.9375C100.688 72 101.25 74.25 101.25 76.5C101.25 90.1875 90 101.25 76.5 101.25C62.8125 101.25 51.75 90.1875 51.75 76.5C51.75 63 62.8125 51.75 76.5 51.75C78.75 51.75 81 52.3125 83.0625 52.875C81.375 48.75 81.5625 49.3125 81.375 48.9375ZM76.5 61.5C68.0625 61.5 61.5 68.25 61.5 76.5C61.5 84.9375 68.0625 91.5 76.5 91.5C84.75 91.5 91.5 84.9375 91.5 76.5C91.5 75.9375 91.3125 75.1875 91.125 74.4375L82.6875 82.875C81.1875 84.5625 78.9375 85.5 76.5 85.5C71.4375 85.5 67.5 81.5625 67.5 76.5C67.5 74.0625 68.4375 71.8125 70.125 70.3125L78.5625 61.875C77.8125 61.6875 77.0625 61.5 76.5 61.5Z" fill="#E74011"/>
</svg>
