<?xml version="1.0" encoding="UTF-8" ?>
<svg width="152" height="153" viewBox="0 0 152 153" fill="none" xmlns="http://www.w3.org/2000/svg">
<rect width="152" height="152" transform="translate(0 0.5)" fill="white"/>
<path d="M124 63.1875V34.5C124 33 122.688 28.5 118 28.5C116.5 28.5 115.188 29.0625 114.25 30L98.125 42.75C90.25 49.125 80.125 52.5 70 52.5H34C27.25 52.5 22 57.9375 22 64.5V82.5C22 89.25 27.25 94.5 34 94.5L33.8125 100.5C33.8125 108 35.5 115.125 38.6875 121.312C39.625 123.375 41.6875 124.5 43.9375 124.5H63.8125C68.6875 124.5 71.6875 119.062 68.6875 115.125C65.6875 111 63.8125 106.125 63.8125 100.5C63.8125 98.4375 64.1875 96.5625 64.5625 94.5H70C80.125 94.5 90.25 98.0625 98.125 104.438L114.25 117.188C115.188 118.125 116.5 118.5 117.812 118.5C122.5 118.5 123.812 114.375 123.812 112.5V84C127.562 81.9375 129.812 78 129.812 73.5C130 69.1875 127.562 65.25 124 63.1875ZM63.8125 118.5H43.9375C41.3125 112.875 39.8125 106.875 39.8125 100.688V94.6875L40 94.5H58.5625C58.1875 96.5625 57.8125 98.625 57.8125 100.5C57.8125 107.25 59.875 113.438 63.8125 118.5ZM34 88.5C30.625 88.5 28 85.875 28 82.5V64.5C28 61.3125 30.625 58.5 34 58.5H70V88.5H34ZM118 112.312C118 112.5 117.812 112.5 117.812 112.5L101.875 99.75C94.375 93.75 85.375 90.1875 76 89.0625V58.125C85.375 57 94.375 53.25 101.875 47.4375L117.812 34.6875C117.812 34.6875 117.812 34.6875 118 34.6875V112.312Z" fill="#E74011"/>
</svg>
