<svg width="163" height="335" viewBox="0 0 163 335" fill="none" xmlns="http://www.w3.org/2000/svg">
<path fill-rule="evenodd" clip-rule="evenodd" d="M131.284 332.788C133.161 334.752 136.172 334.752 138.049 332.788L161.592 308.158C163.469 306.194 163.469 303.043 161.592 301.079C160.653 300.098 159.441 299.607 158.19 299.607H111.143C109.931 299.607 108.679 300.098 107.78 301.079C105.903 303.043 105.903 306.194 107.78 308.158L131.284 332.788Z" fill="white"/>
<path fill-rule="evenodd" clip-rule="evenodd" d="M131.284 253.169C133.161 255.133 136.172 255.133 138.049 253.169L161.592 228.538C163.469 226.574 163.469 223.424 161.592 221.46C160.653 220.478 159.441 219.987 158.19 219.987H111.143C109.931 219.987 108.679 220.478 107.78 221.46C105.903 223.424 105.903 226.574 107.78 228.538L131.284 253.169Z" fill="white"/>
<path fill-rule="evenodd" clip-rule="evenodd" d="M131.284 173.508C133.161 175.472 136.172 175.472 138.049 173.508L161.592 148.878C163.469 146.914 163.469 143.764 161.592 141.8C160.653 140.818 159.441 140.327 158.19 140.327H111.143C109.931 140.327 108.679 140.818 107.78 141.8C105.903 143.764 105.903 146.914 107.78 148.878L131.284 173.508Z" fill="white"/>
<path fill-rule="evenodd" clip-rule="evenodd" d="M131.284 93.889C133.161 95.8529 136.172 95.8529 138.049 93.889L161.592 69.2586C163.469 67.2947 163.469 64.1443 161.592 62.1804C160.653 61.1985 159.441 60.7075 158.19 60.7075H111.143C109.931 60.7075 108.679 61.1985 107.78 62.1804C105.903 64.1443 105.903 67.2947 107.78 69.2586L131.284 93.889Z" fill="white"/>
<path fill-rule="evenodd" clip-rule="evenodd" d="M24.9506 205.447C26.8277 207.411 29.839 207.411 31.7162 205.447L55.2589 180.817C57.136 178.853 57.136 175.702 55.2589 173.739C54.3203 172.757 53.108 172.266 51.8565 172.266H4.77111C3.55878 172.266 2.30734 172.757 1.40787 173.739C-0.46929 175.702 -0.46929 178.853 1.40787 180.817L24.9506 205.447Z" fill="white"/>
<path fill-rule="evenodd" clip-rule="evenodd" d="M24.9506 163.919C26.8277 165.883 29.839 165.883 31.7162 163.919L55.2589 139.289C57.136 137.325 57.136 134.174 55.2589 132.21C54.3203 131.229 53.108 130.738 51.8565 130.738H4.77111C3.55878 130.738 2.30734 131.229 1.40787 132.21C-0.46929 134.174 -0.46929 137.325 1.40787 139.289L24.9506 163.919Z" fill="white"/>
<path fill-rule="evenodd" clip-rule="evenodd" d="M24.9506 122.391C26.8278 124.355 29.839 124.355 31.7162 122.391L55.2198 97.7606C57.097 95.7967 57.097 92.6463 55.2198 90.6824C54.2812 89.7004 53.0689 89.2095 51.8175 89.2095H4.77112C3.55878 89.2095 2.30734 89.7004 1.40787 90.6824C-0.46929 92.6463 -0.46929 95.7967 1.40787 97.7606L24.9506 122.391Z" fill="white"/>
<path fill-rule="evenodd" clip-rule="evenodd" d="M24.9506 80.8629C26.8277 82.8268 29.839 82.8268 31.7162 80.8629L55.2589 56.2324C57.136 54.2686 57.136 51.1181 55.2589 49.1543C54.3203 48.1723 53.108 47.6813 51.8565 47.6813H4.77111C3.55878 47.6813 2.30734 48.1723 1.40787 49.1543C-0.46929 51.1181 -0.46929 54.2686 1.40787 56.2324L24.9506 80.8629Z" fill="white"/>
<path fill-rule="evenodd" clip-rule="evenodd" d="M24.9506 39.3348C26.8277 41.2987 29.839 41.2987 31.7162 39.3348L55.2589 14.7044C57.136 12.7405 57.136 9.59007 55.2589 7.62618C54.3203 6.64423 53.108 6.15326 51.8565 6.15326H4.77111C3.55878 6.15326 2.30734 6.64423 1.40787 7.62618C-0.46929 9.59007 -0.46929 12.7405 1.40787 14.7044L24.9506 39.3348Z" fill="white"/>
</svg>
