<svg width="163" height="534" viewBox="0 0 163 534" fill="none" xmlns="http://www.w3.org/2000/svg">
<path fill-rule="evenodd" clip-rule="evenodd" d="M131.284 532.351C133.161 534.471 136.172 534.471 138.049 532.351L161.592 505.761C163.469 503.64 163.469 500.239 161.592 498.119C160.654 497.059 159.441 496.529 158.19 496.529H111.143C109.931 496.529 108.68 497.059 107.78 498.119C105.903 500.239 105.903 503.64 107.78 505.761L131.284 532.351Z" fill="white"/>
<path fill-rule="evenodd" clip-rule="evenodd" d="M131.284 446.396C133.161 448.516 136.172 448.516 138.049 446.396L161.592 419.806C163.469 417.686 163.469 414.284 161.592 412.164C160.654 411.104 159.441 410.574 158.19 410.574H111.143C109.931 410.574 108.68 411.104 107.78 412.164C105.903 414.284 105.903 417.686 107.78 419.806L131.284 446.396Z" fill="white"/>
<path fill-rule="evenodd" clip-rule="evenodd" d="M131.284 360.397C133.161 362.517 136.172 362.517 138.049 360.397L161.592 333.807C163.469 331.686 163.469 328.285 161.592 326.165C160.654 325.105 159.441 324.575 158.19 324.575H111.143C109.931 324.575 108.68 325.105 107.78 326.165C105.903 328.285 105.903 331.686 107.78 333.807L131.284 360.397Z" fill="white"/>
<path fill-rule="evenodd" clip-rule="evenodd" d="M131.284 274.442C133.161 276.562 136.172 276.562 138.049 274.442L161.592 247.852C163.469 245.732 163.469 242.331 161.592 240.21C160.654 239.15 159.441 238.62 158.19 238.62H111.143C109.931 238.62 108.68 239.15 107.78 240.21C105.903 242.331 105.903 245.732 107.78 247.852L131.284 274.442Z" fill="white"/>
<path fill-rule="evenodd" clip-rule="evenodd" d="M24.9506 394.877C26.8277 396.997 29.839 396.997 31.7162 394.877L55.2589 368.287C57.136 366.167 57.136 362.765 55.2589 360.645C54.3203 359.585 53.108 359.055 51.8565 359.055H4.77111C3.55878 359.055 2.30734 359.585 1.40787 360.645C-0.46929 362.765 -0.46929 366.167 1.40787 368.287L24.9506 394.877Z" fill="white"/>
<path fill-rule="evenodd" clip-rule="evenodd" d="M24.9506 350.045C26.8277 352.165 29.839 352.165 31.7162 350.045L55.2589 323.454C57.136 321.334 57.136 317.933 55.2589 315.813C54.3203 314.753 53.108 314.223 51.8565 314.223H4.77111C3.55878 314.223 2.30734 314.753 1.40787 315.813C-0.46929 317.933 -0.46929 321.334 1.40787 323.454L24.9506 350.045Z" fill="white"/>
<path fill-rule="evenodd" clip-rule="evenodd" d="M24.9506 305.212C26.8278 307.332 29.839 307.332 31.7162 305.212L55.2198 278.622C57.097 276.501 57.097 273.1 55.2198 270.98C54.2812 269.92 53.0689 269.39 51.8175 269.39H4.77112C3.55878 269.39 2.30734 269.92 1.40787 270.98C-0.46929 273.1 -0.46929 276.501 1.40787 278.622L24.9506 305.212Z" fill="white"/>
<path fill-rule="evenodd" clip-rule="evenodd" d="M24.9506 260.379C26.8277 262.5 29.839 262.5 31.7162 260.379L55.2589 233.789C57.136 231.669 57.136 228.268 55.2589 226.148C54.3203 225.088 53.108 224.558 51.8565 224.558H4.77111C3.55878 224.558 2.30734 225.088 1.40787 226.148C-0.46929 228.268 -0.46929 231.669 1.40787 233.789L24.9506 260.379Z" fill="white"/>
<path fill-rule="evenodd" clip-rule="evenodd" d="M24.9506 215.547C26.8277 217.667 29.839 217.667 31.7162 215.547L55.2589 188.956C57.136 186.836 57.136 183.435 55.2589 181.315C54.3203 180.255 53.108 179.725 51.8565 179.725H4.77111C3.55878 179.725 2.30734 180.255 1.40787 181.315C-0.46929 183.435 -0.46929 186.836 1.40787 188.956L24.9506 215.547Z" fill="white"/>
<path fill-rule="evenodd" clip-rule="evenodd" d="M24.9506 170.67C26.8277 172.79 29.839 172.79 31.7162 170.67L55.2589 144.08C57.136 141.96 57.136 138.558 55.2589 136.438C54.3203 135.378 53.108 134.848 51.8565 134.848H4.77111C3.55878 134.848 2.30734 135.378 1.40787 136.438C-0.46929 138.558 -0.46929 141.96 1.40787 144.08L24.9506 170.67Z" fill="white"/>
<path fill-rule="evenodd" clip-rule="evenodd" d="M24.9506 125.837C26.8277 127.958 29.839 127.958 31.7162 125.837L55.2589 99.2472C57.136 97.127 57.136 93.7259 55.2589 91.6057C54.3203 90.5457 53.108 90.0156 51.8565 90.0156H4.77111C3.55878 90.0156 2.30734 90.5457 1.40787 91.6057C-0.46929 93.7259 -0.46929 97.127 1.40787 99.2472L24.9506 125.837Z" fill="white"/>
<path fill-rule="evenodd" clip-rule="evenodd" d="M24.9506 81.005C26.8277 83.1251 29.839 83.1251 31.7162 81.005L55.2589 54.4146C57.136 52.2944 57.136 48.8933 55.2589 46.7732C54.3203 45.7131 53.108 45.183 51.8565 45.183H4.77111C3.55878 45.183 2.30734 45.7131 1.40787 46.7732C-0.46929 48.8933 -0.46929 52.2944 1.40787 54.4146L24.9506 81.005Z" fill="white"/>
<path fill-rule="evenodd" clip-rule="evenodd" d="M24.9506 36.1724C26.8277 38.2925 29.839 38.2925 31.7162 36.1724L55.2589 9.582C57.136 7.46184 57.136 4.06075 55.2589 1.94059C54.2812 0.880504 53.0689 0.350464 51.8565 0.350464H4.77111C3.55878 0.350464 2.34645 0.880504 1.40787 1.94059C-0.46929 4.06075 -0.46929 7.46184 1.40787 9.582L24.9506 36.1724Z" fill="white"/>
</svg>
