<?xml version="1.0" encoding="UTF-8" ?>
<svg width="153" height="153" viewBox="0 0 153 153" fill="none" xmlns="http://www.w3.org/2000/svg">
<rect width="152" height="152" transform="translate(0.5 0.5)" fill="white"/>
<path d="M135.938 65.625L122.25 32.25C121.312 30.1875 119.062 28.5 116.625 28.5C115.875 28.5 115.125 28.6875 114.375 29.0625L93.9375 37.5C91.125 38.625 89.8125 41.8125 90.5625 44.625L30.5625 73.875C28.875 74.625 28.125 76.3125 28.6875 77.8125L30.1875 81.75L18.1875 86.8125C17.25 87.1875 16.3125 88.3125 16.3125 89.625C16.3125 90 16.5 90.375 16.6875 90.75L20.4375 99.75C20.8125 100.875 21.9375 101.625 23.25 101.625C23.625 101.625 24 101.625 24.375 101.438L36.375 96.375L38.0625 100.312C38.8125 102.188 40.875 102.375 42.1875 102L67.125 93.1875C67.5 93.5625 67.6875 93.75 68.0625 93.9375L58.5 122.625C58.5 122.812 58.5 123 58.5 123C58.5 123.938 59.0625 124.5 60 124.5H63C63.75 124.5 64.3125 124.125 64.5 123.562L73.3125 97.125C75.5625 97.6875 77.4375 97.6875 79.5 97.125L88.3125 123.562C88.5 124.125 89.0625 124.5 89.8125 124.5H92.8125C93.75 124.5 94.3125 123.938 94.3125 123C94.3125 123 94.3125 122.812 94.3125 122.625L84.75 94.125C87 92.0625 88.3125 89.0625 88.3125 85.875L105.375 80.0625C106.688 81.5625 109.312 83.0625 112.312 81.75L132.75 73.3125C134.812 72.5625 136.5 70.3125 136.5 67.875C136.5 67.125 136.312 66.1875 135.938 65.625ZM24.75 94.6875L23.25 91.125L32.625 87.375L34.125 90.9375L24.75 94.6875ZM76.5 91.5C73.125 91.5 70.5 88.875 70.5 85.5C70.5 82.3125 73.125 79.5 76.5 79.5C79.6875 79.5 82.5 82.3125 82.5 85.5C82.3125 88.875 79.6875 91.5 76.5 91.5ZM87 80.0625C84.9375 76.125 81 73.5 76.3125 73.5C69.75 73.5 64.3125 78.9375 64.3125 85.5C64.3125 86.25 64.5 87 64.6875 87.75L42.375 95.4375L35.25 78.1875L92.8125 50.25L102.75 74.4375L87 80.0625ZM110.062 76.3125L96.1875 42.9375L116.625 34.6875L130.312 67.875L110.062 76.3125Z" fill="#E74011"/>
</svg>
