<?xml version="1.0" encoding="UTF-8" ?>
<svg width="152" height="152" viewBox="0 0 152 152" fill="none" xmlns="http://www.w3.org/2000/svg">
<rect width="152" height="152" fill="white"/>
<path d="M61.9375 97.1875L60.4375 106C60.25 107.875 61 109.938 62.6875 111.062C63.625 111.812 64.5625 112.188 65.6875 112.188C66.4375 112.188 67.375 111.812 68.125 111.438L76 107.312L83.6875 111.438C85.5625 112.375 87.625 112.188 89.3125 111.062C90.8125 109.938 91.75 107.875 91.375 106L89.875 97.1875L96.0625 91.1875C97.5625 89.6875 98.125 87.625 97.375 85.75C96.8125 83.875 95.125 82.5625 93.25 82.1875L84.4375 80.875L80.6875 73C79.75 71.125 77.875 70 76 70C73.9375 70 72.0625 71.125 71.3125 73L67.375 80.875L58.5625 82.1875C56.6875 82.375 55 83.875 54.4375 85.75C53.875 87.625 54.25 89.6875 55.75 91.1875L61.9375 97.1875ZM71.3125 86.3125L76 76.9375L80.5 86.3125L90.8125 87.8125L83.3125 95.125L85.1875 105.438L76 100.562L66.625 105.438L68.5 95.125L61 87.8125L71.3125 86.3125ZM109 40H100V29.5C100 28.75 99.25 28 98.5 28H95.5C94.5625 28 94 28.75 94 29.5V40H58V29.5C58 28.75 57.25 28 56.5 28H53.5C52.5625 28 52 28.75 52 29.5V40H43C37.9375 40 34 44.125 34 49V115C34 120.062 37.9375 124 43 124H109C113.875 124 118 120.062 118 115V49C118 44.125 113.875 40 109 40ZM112 115C112 116.688 110.5 118 109 118H43C41.3125 118 40 116.688 40 115V64H112V115ZM112 58H40V49C40 47.5 41.3125 46 43 46H109C110.5 46 112 47.5 112 49V58Z" fill="#E74011"/>
</svg>
