<svg width="294" height="60" viewBox="0 0 294 60" fill="none" xmlns="http://www.w3.org/2000/svg">
<path fill-rule="evenodd" clip-rule="evenodd" d="M32.66 2.98V56.36C32.66 58.01 31.32 59.34 29.68 59.34C28.86 59.34 28.11 59.01 27.57 58.47L0.86 31.77C0.33 31.23 0 30.49 0 29.67C0 28.8 0.37 28.02 0.96 27.47L27.57 0.87C28.11 0.33 28.85 0 29.68 0C31.32 0 32.66 1.34 32.66 2.98Z" fill="white"/>
<path fill-rule="evenodd" clip-rule="evenodd" d="M80.2401 0H106.93C108.58 0 109.91 1.34 109.91 2.98V56.36C109.91 58.01 108.57 59.34 106.93 59.34C106.82 59.34 106.72 59.33 106.62 59.32H80.5501C80.4501 59.33 80.3401 59.34 80.2401 59.34C78.5901 59.34 77.2601 58 77.2601 56.36V2.98C77.2501 1.34 78.5901 0 80.2401 0Z" fill="white"/>
<path fill-rule="evenodd" clip-rule="evenodd" d="M142.56 35.6399V56.3699C142.56 58.0199 141.22 59.3499 139.58 59.3499C138.76 59.3499 138.01 59.0199 137.47 58.4799L116.74 37.7499C116.2 37.2099 115.87 36.4599 115.87 35.6399C115.87 33.9899 117.21 32.6599 118.85 32.6599H139.58C141.23 32.6599 142.56 33.9899 142.56 35.6399Z" fill="white"/>
<path fill-rule="evenodd" clip-rule="evenodd" d="M142.56 23.71V2.98C142.56 1.33 141.22 0 139.58 0C138.76 0 138.01 0.33 137.47 0.87L116.74 21.6C116.2 22.14 115.87 22.89 115.87 23.71C115.87 25.36 117.21 26.69 118.85 26.69H139.58C141.23 26.69 142.56 25.36 142.56 23.71Z" fill="white"/>
<path fill-rule="evenodd" clip-rule="evenodd" d="M65.3199 35.6399V56.3699C65.3199 58.0199 63.9799 59.3499 62.3399 59.3499C61.5199 59.3499 60.7699 59.0199 60.2299 58.4799L39.4999 37.7499C38.9599 37.2099 38.6299 36.4599 38.6299 35.6399C38.6299 33.9899 39.9699 32.6599 41.6099 32.6599H62.3399C63.9799 32.6599 65.3199 33.9899 65.3199 35.6399Z" fill="white"/>
<path fill-rule="evenodd" clip-rule="evenodd" d="M65.3199 2.98V23.71C65.3199 25.36 63.9799 26.69 62.3399 26.69C61.5199 26.69 60.7699 26.36 60.2299 25.82L39.4999 5.09C38.9599 4.55 38.6299 3.8 38.6299 2.98C38.6299 1.33 39.9699 0 41.6099 0H62.3399C63.9799 0 65.3199 1.34 65.3199 2.98Z" fill="white"/>
<path fill-rule="evenodd" clip-rule="evenodd" d="M166.15 20.0099C165.35 20.4399 164.55 20.5999 163.69 20.5999C161.08 20.5999 159.26 18.7899 159.26 16.2299C159.26 13.6399 161.07 11.8599 163.72 11.8599C165.1 11.8599 166.25 12.3499 167.25 13.3999L169.28 11.5299C167.95 9.98992 165.97 9.16992 163.57 9.16992C159.22 9.16992 156.06 12.1099 156.06 16.2299C156.06 20.3499 159.22 23.2899 163.51 23.2899C165.46 23.2899 167.53 22.6899 169.03 21.5499V16.0099H166.14V20.0099H166.15ZM183.69 23.0599H187L180.9 9.40992H177.78L171.7 23.0599H174.94L176.15 20.1399H182.49L183.69 23.0599ZM177.16 17.7299L179.32 12.4999L181.48 17.7299H177.16ZM189.97 23.0599H199.97V20.4899H193.13V9.40992H189.97V23.0599ZM213.73 9.40992H210.63L206.98 15.4699L203.33 9.40992H199.98L205.26 18.1799V23.0499H208.42V18.2099L213.73 9.40992ZM219.17 23.0599H222.33V11.9799H226.7V9.40992H214.8V11.9799H219.17V23.0599ZM234.32 23.2899C238.22 23.2899 240.11 21.3399 240.11 19.0599C240.11 14.0499 232.17 15.7899 232.17 13.2699C232.17 12.4099 232.89 11.7099 234.76 11.7099C235.97 11.7099 237.28 12.0599 238.54 12.7799L239.51 10.3799C238.24 9.57992 236.49 9.16992 234.77 9.16992C230.89 9.16992 229.02 11.0999 229.02 13.4199C229.02 18.4899 236.96 16.7299 236.96 19.2899C236.96 20.1299 236.2 20.7499 234.33 20.7499C232.69 20.7499 230.98 20.1699 229.83 19.3299L228.76 21.7099C229.97 22.6499 232.15 23.2899 234.32 23.2899ZM253.15 23.0599H256.84L250.85 15.4899L256.5 9.40992H252.99L246.95 15.7899V9.40992H243.81V23.0599H246.95V19.5999L248.78 17.6899L253.15 23.0599ZM259.77 23.0599H262.93V9.40992H259.77V23.0599ZM166.26 49.9399H169.94L163.95 42.3699L169.6 36.2899H166.09L160.05 42.6699V36.2899H156.91V49.9399H160.05V46.4899L161.88 44.5799L166.26 49.9399ZM179.01 50.1799C183.3 50.1799 186.48 47.1999 186.48 43.1199C186.48 39.0499 183.3 36.0599 179.01 36.0599C174.7 36.0599 171.54 39.0599 171.54 43.1199C171.54 47.1699 174.7 50.1799 179.01 50.1799ZM179.01 47.4899C176.57 47.4899 174.74 45.7199 174.74 43.1199C174.74 40.5299 176.57 38.7499 179.01 38.7499C181.45 38.7499 183.28 40.5199 183.28 43.1199C183.28 45.7099 181.45 47.4899 179.01 47.4899ZM199.79 36.2899V44.5799L193 36.2899H190.39V49.9399H193.51V41.6499L200.31 49.9399H202.9V36.2899H199.79ZM210.51 49.9399H213.67V38.8699H218.04V36.2999H206.15V38.8699H210.52V49.9399H210.51ZM233.36 49.9399L230.3 45.5499C232.07 44.7899 233.11 43.2899 233.11 41.2399C233.11 38.1799 230.83 36.2899 227.18 36.2899H221.27V49.9399H224.43V46.1399H227.18H227.34L229.97 49.9399H233.36ZM229.91 41.2499C229.91 42.7299 228.94 43.6299 227.01 43.6299H224.44V38.8699H227.01C228.94 38.8699 229.91 39.7399 229.91 41.2499ZM247.34 49.9399H250.65L244.55 36.2899H241.43L235.35 49.9399H238.59L239.8 47.0199H246.14L247.34 49.9399ZM240.81 44.6199L242.97 39.3899L245.13 44.6199H240.81ZM262.96 49.9399H266.64L260.65 42.3699L266.3 36.2899H262.79L256.75 42.6699V36.2899H253.61V49.9399H256.75V46.4899L258.58 44.5799L262.96 49.9399ZM271.47 49.9399H274.63V38.8699H279V36.2999H267.11V38.8699H271.48V49.9399H271.47ZM293.83 36.2899H290.73L287.08 42.3499L283.43 36.2899H280.08L285.36 45.0599V49.9299H288.52V45.0899L293.83 36.2899Z" fill="white"/>
</svg>
