<?xml version="1.0" encoding="UTF-8" ?>
<svg width="152" height="153" viewBox="0 0 152 153" fill="none" xmlns="http://www.w3.org/2000/svg">
<rect width="152" height="152" transform="translate(0 0.5)" fill="white"/>
<path d="M129.625 81.1875L121 45.9375C120.062 42 117.438 38.4375 113.688 36.375C110.125 34.5 105.625 34.125 101.688 35.4375L97.375 36.75C96.625 37.125 96.25 37.875 96.4375 38.625L97.375 41.4375C97.75 42.375 98.5 42.75 99.4375 42.5625L103.375 41.0625C105.25 40.5 107.5 40.3125 109.375 41.0625C112.375 42 114.438 44.4375 115.188 47.4375L122.875 79.5C118.562 78 112.75 76.6875 106 76.6875C99.0625 76.6875 91 78.1875 82.5625 82.6875H69.25C60.8125 78.1875 52.75 76.6875 45.8125 76.6875C39.0625 76.6875 33.25 78 28.9375 79.5L36.625 47.4375C37.1875 44.8125 38.875 42.75 41.125 41.625C43.375 40.5 46.1875 40.3125 48.625 41.25L52.375 42.5625C53.3125 42.75 54.0625 42.375 54.4375 41.625L55.375 38.625C55.5625 37.875 55.1875 37.125 54.4375 36.75L50.125 35.4375C46.1875 34.125 41.6875 34.5 38.125 36.375C34.375 38.4375 31.75 42 30.8125 45.9375L22.1875 81.1875C22 82.125 22 83.0625 22 84V97.875C22 109.312 31.375 118.5 43 118.5H49.75C60.625 118.5 69.8125 110.25 70.5625 99.375L71.5 88.5H80.3125L81.25 99.375C82 110.25 91.1875 118.5 102.062 118.5H109C120.438 118.5 130 109.312 130 97.875V84C130 83.0625 129.812 82.125 129.625 81.1875ZM64.5625 99C64 106.5 57.4375 112.5 49.75 112.5H43C34.5625 112.5 28 105.938 28 97.875V86.25C31.375 84.9375 37.9375 82.6875 45.8125 82.6875C52.5625 82.6875 59.3125 84.1875 65.5 87.375L64.5625 99ZM124 97.875C124 105.938 117.25 112.5 109 112.5H102.062C94.375 112.5 87.8125 106.5 87.25 99L86.3125 87.375C92.6875 84.1875 99.25 82.6875 106 82.6875C113.875 82.6875 120.438 84.9375 124 86.25V97.875Z" fill="#E74011"/>
</svg>
