<?xml version="1.0" encoding="UTF-8" ?>
<svg width="153" height="152" viewBox="0 0 153 152" fill="none" xmlns="http://www.w3.org/2000/svg">
<rect width="152" height="152" transform="translate(0.5)" fill="white"/>
<path d="M19.5 88C21 88 22.5 86.6875 22.5 85C22.5 83.3125 21 82 19.5 82C17.8125 82 16.5 83.3125 16.5 85C16.5 86.6875 17.8125 88 19.5 88ZM135 52L113.625 52.1875L104.062 42.8125C102.375 41.125 100.125 40.1875 97.6875 40.1875H78.75C76.875 40.1875 75 40.9375 73.5 42.0625C71.8125 40.75 69.9375 40 67.875 40H54.9375C52.5 40 50.25 40.9375 48.5625 42.625L39.1875 52H18C17.0625 52 16.5 52.75 16.5 53.5V56.5C16.5 57.4375 17.0625 58 18 58H28.5V94H18C17.0625 94 16.5 94.75 16.5 95.5V98.5C16.5 99.4375 17.0625 100 18 100H28.5C31.6875 100 34.3125 97.375 34.3125 94.1875H40.6875L55.875 108.812C61.5 113.312 69.375 113.125 74.8125 108.625L76.125 109.938C78 111.25 80.25 112.188 82.5 112.188C85.5 112.188 88.3125 110.875 90.1875 108.438L94.3125 103.375C97.5 105.062 102.375 105.062 105.562 101.125L107.438 98.875C108.562 97.5625 109.125 95.875 109.312 94.1875H118.5C118.5 97.375 121.125 100 124.5 100H135C135.75 100 136.5 99.4375 136.5 98.5V95.5C136.5 94.75 135.75 94 135 94H124.5V58.1875L135 58C135.75 58 136.5 57.4375 136.5 56.5V53.5C136.5 52.75 135.75 52 135 52ZM102.75 95.125L100.875 97.375C99.9375 98.5 98.0625 98.875 96.75 97.75L93.375 95.125L85.5 104.688C84.1875 106.375 81.5625 106.562 80.0625 105.25L74.25 100.375L72.375 102.812C69.1875 106.562 63.5625 107.125 59.8125 104.312L43.125 88.1875H34.5V58H41.625L52.6875 46.9375C53.25 46.375 54.1875 46 54.9375 46H67.875C68.0625 46.5625 68.0625 46.1875 68.0625 46.5625L57 56.6875C51.75 61.5625 51.5625 69.8125 56.25 74.875C58.875 77.875 67.3125 82.375 74.4375 75.8125L78.75 71.875L102.188 91C103.5 91.9375 103.688 93.8125 102.75 95.125ZM118.5 88.1875H107.625C107.25 87.4375 106.688 86.875 106.125 86.3125L83.25 67.75L88.5 62.875C89.8125 61.75 89.8125 59.875 88.6875 58.5625C87.5625 57.4375 85.6875 57.25 84.375 58.375L70.3125 71.3125C67.6875 73.75 63.1875 73.5625 60.75 70.9375C58.125 68.125 58.3125 63.8125 61.125 61.1875L76.6875 46.9375C77.25 46.375 78 46.1875 78.75 46.1875H97.6875C98.4375 46.1875 99.1875 46.375 99.75 46.9375L111.188 58H118.5V88.1875ZM133.5 82C131.812 82 130.5 83.5 130.5 85C130.5 86.6875 131.812 88 133.5 88C135 88 136.5 86.6875 136.5 85C136.5 83.3125 135 82 133.5 82Z" fill="#E74011"/>
</svg>
