<svg width="145" height="80" viewBox="0 0 145 80" fill="none" xmlns="http://www.w3.org/2000/svg">
<g clip-path="url(#clip0)">
<path fill-rule="evenodd" clip-rule="evenodd" d="M33.0382 3.02083V57.0312C33.0382 58.6979 31.684 60.0521 30.0174 60.0521C29.184 60.0521 28.4288 59.7135 27.8819 59.1667L0.876736 32.1441C0.329861 31.5972 0 30.8507 0 30.0174C0 29.1406 0.373264 28.3507 0.972222 27.7951L27.8906 0.876736C28.4375 0.338542 29.1927 0 30.026 0C31.6927 0 33.0382 1.35417 33.0382 3.02083Z" fill="#E74011"/>
<path fill-rule="evenodd" clip-rule="evenodd" d="M81.1717 0H108.177C109.844 0 111.198 1.35417 111.198 3.02083V57.0312C111.198 58.6979 109.844 60.0521 108.177 60.0521C108.073 60.0521 107.96 60.0434 107.856 60.0347H81.4929C81.3887 60.0434 81.2846 60.0521 81.1717 60.0521C79.505 60.0521 78.1509 58.6979 78.1509 57.0312V3.02083C78.1596 1.35417 79.505 0 81.1717 0ZM144.227 23.9844C144.227 25.651 142.873 27.0052 141.206 27.0052H120.243C118.576 27.0052 117.222 25.651 117.222 23.9844C117.222 23.151 117.561 22.3958 118.107 21.849L139.08 0.876736C139.627 0.329861 140.382 0 141.215 0C142.882 0 144.236 1.35417 144.236 3.02083V23.9844H144.227ZM144.227 36.059C144.227 34.3924 142.873 33.0382 141.206 33.0382H120.243C118.576 33.0382 117.222 34.3924 117.222 36.059C117.222 36.8924 117.561 37.6476 118.107 38.1944L139.08 59.1667C139.627 59.7135 140.382 60.0521 141.215 60.0521C142.882 60.0521 144.236 58.6979 144.236 57.0312V36.059H144.227Z" fill="#E74011"/>
<path fill-rule="evenodd" clip-rule="evenodd" d="M66.0853 36.059V57.0312C66.0853 58.6979 64.7311 60.0521 63.0645 60.0521C62.2311 60.0521 61.4759 59.7135 60.929 59.1667L39.9655 38.1858C39.4186 37.6389 39.0801 36.8837 39.0801 36.0503C39.0801 34.3837 40.4342 33.0295 42.1009 33.0295H63.0645C64.7311 33.0382 66.0853 34.3924 66.0853 36.059ZM66.0853 3.02083C66.0853 1.35417 64.7311 0 63.0645 0H42.1009C40.4342 0 39.0801 1.35417 39.0801 3.02083C39.0801 3.85417 39.4186 4.60937 39.9655 5.15625L60.929 26.1285C61.4759 26.6753 62.2311 27.0139 63.0645 27.0139C64.7311 27.0139 66.0853 25.6597 66.0853 23.9931V3.02083Z" fill="#E74011"/>
<path fill-rule="evenodd" clip-rule="evenodd" d="M5.72049 78.1336C5.2691 78.3854 4.81771 78.4722 4.3316 78.4722C2.84722 78.4722 1.82292 77.4392 1.82292 75.9895C1.82292 74.5138 2.8559 73.5069 4.35764 73.5069C5.14757 73.5069 5.79861 73.7847 6.36285 74.3836L7.51736 73.3246C6.76215 72.4479 5.63368 71.9878 4.27083 71.9878C1.79688 71.9878 0 73.6545 0 75.9895C0 78.3246 1.79687 80 4.22743 80C5.33854 80 6.51042 79.6527 7.36111 79.0104V75.868H5.72049V78.1336ZM15.6858 79.8611H17.5694L14.1059 72.1093H12.3264L8.87153 79.8611H10.7118L11.3976 78.2031H14.9913L15.6858 79.8611ZM11.9705 76.8402L13.2031 73.8715L14.4358 76.8402H11.9705ZM19.2448 79.8611H24.9219V78.4027H21.033V72.118H19.2361V79.8611H19.2448ZM32.7344 72.118H30.9722L28.9062 75.5642L26.8403 72.118H24.9392L27.9427 77.1007V79.8611H29.7396V77.118L32.7344 72.118ZM35.8247 79.8611H37.6215V73.5764H40.1042V72.118H33.3507V73.5764H35.8333V79.8611H35.8247ZM44.4184 80C46.6319 80 47.7083 78.8888 47.7083 77.5954C47.7083 74.7482 43.2031 75.7378 43.2031 74.3055C43.2031 73.8194 43.6111 73.4201 44.6788 73.4201C45.3646 73.4201 46.1024 73.6198 46.8229 74.0277L47.3785 72.6649C46.658 72.2135 45.6597 71.9791 44.6875 71.9791C42.4826 71.9791 41.4236 73.0729 41.4236 74.3923C41.4236 77.2743 45.9288 76.276 45.9288 77.7257C45.9288 78.2031 45.4948 78.5503 44.4358 78.5503C43.5069 78.5503 42.5347 78.2204 41.875 77.743L41.2674 79.0885C41.9531 79.6354 43.1944 80 44.4184 80ZM55.1128 79.8611H57.2049L53.8108 75.5642L57.0226 72.1093H55.0347L51.6059 75.7291V72.1093H49.8264V79.8611H51.6059V77.8993L52.6476 76.8142L55.1128 79.8611ZM58.8715 79.8611H60.6684V72.1093H58.8715V79.8611ZM71.8142 79.8611H73.9062L70.5122 75.5642L73.724 72.1093H71.7361L68.3073 75.7291V72.1093H66.5278V79.8611H68.3073V77.8993L69.349 76.8142L71.8142 79.8611ZM79.0451 80C81.4844 80 83.2812 78.3073 83.2812 75.9895C83.2812 73.6805 81.4757 71.9791 79.0451 71.9791C76.5972 71.9791 74.809 73.6805 74.809 75.9895C74.809 78.2899 76.6059 80 79.0451 80ZM79.0451 78.4722C77.6649 78.4722 76.6233 77.4652 76.6233 75.9895C76.6233 74.5138 77.6649 73.5069 79.0451 73.5069C80.4253 73.5069 81.467 74.5138 81.467 75.9895C81.4757 77.4652 80.434 78.4722 79.0451 78.4722ZM90.842 72.118V76.8229L86.9878 72.118H85.5035V79.8611H87.2743V75.1562L91.1458 79.8611H92.6215V72.1093H90.842V72.118ZM96.9271 79.8611H98.724V73.5764H101.207V72.118H94.4531V73.5764H96.9358V79.8611H96.9271ZM109.905 79.8611L108.168 77.3697C109.175 76.9357 109.766 76.085 109.766 74.9218C109.766 73.1857 108.472 72.1093 106.398 72.1093H103.047V79.8611H104.844V77.6996H106.406H106.493L107.986 79.8611H109.905ZM107.943 74.9305C107.943 75.7725 107.387 76.2847 106.293 76.2847H104.835V73.585H106.293C107.387 73.5763 107.943 74.0711 107.943 74.9305ZM117.839 79.8611H119.722L116.259 72.1093H114.488L111.033 79.8611H112.873L113.559 78.2031H117.153L117.839 79.8611ZM114.132 76.8402L115.365 73.8715L116.589 76.8402H114.132ZM126.701 79.8611H128.793L125.399 75.5642L128.611 72.1093H126.623L123.194 75.7291V72.1093H121.415V79.8611H123.194V77.8993L124.236 76.8142L126.701 79.8611ZM131.536 79.8611H133.333V73.5764H135.816V72.118H129.062V73.5764H131.545V79.8611H131.536ZM144.227 72.118H142.465L140.399 75.5642L138.333 72.118H136.432L139.436 77.1007V79.8611H141.233V77.118L144.227 72.118Z" fill="black"/>
</g>
<defs>
<clipPath id="clip0">
<rect width="144.227" height="80" fill="white"/>
</clipPath>
</defs>
</svg>
