<?xml version="1.0" encoding="UTF-8" ?>
<svg width="141" height="154" viewBox="0 0 141 154" fill="none" xmlns="http://www.w3.org/2000/svg">
<path fill-rule="evenodd" clip-rule="evenodd" d="M24.1456 108.24H24.1761H45.3612C45.4528 108.24 44.9033 108.24 45.6054 108.24C46.3075 108.24 48.017 109.354 48.017 110.686V117.992V118.023V118.054V118.116V118.147V118.209V118.24V118.271V118.364V118.395V118.426V118.457V118.488V118.519V118.55V118.581V118.612V118.643V118.673V118.704L47.9865 118.797V118.828C47.8644 119.231 47.6202 119.571 47.3149 119.819L25.8856 141.801C25.4582 142.235 24.8477 142.513 24.2067 142.513H24.1761H24.1456H24.1151C23.474 142.513 22.8635 142.235 22.4361 141.801L0.823682 119.881C0.518421 119.602 0.304739 119.262 0.152108 118.89V118.859L0.121582 118.766V118.735V118.704V118.673V118.643V118.612V118.581V118.55V118.519V118.488V118.457V118.426V118.333V118.302V118.271V118.209V118.178V118.116V118.085V118.054V110.747C0.121582 109.385 1.83104 108.302 2.53314 108.302C3.23524 108.302 2.7163 108.302 2.77735 108.302H23.9625H24.1456V108.24Z" fill="white"/>
<path fill-rule="evenodd" clip-rule="evenodd" d="M0.0302734 2.72457C0.0302734 2.63168 0.0302734 3.18898 0.0302734 2.47688C0.0302734 1.73382 1.09869 0 2.44183 0H45.8499C47.1931 0 48.2615 1.1146 48.2615 2.44592V7.77121C48.2615 9.13349 47.1626 10.2171 45.8499 10.2171H2.44183C1.09869 10.2171 0.0302734 9.10253 0.0302734 7.77121C0.0302734 7.67833 0.0302734 7.58544 0.0302734 7.52352V2.72457Z" fill="white"/>
<path fill-rule="evenodd" clip-rule="evenodd" d="M48.2615 101.242C48.2615 101.335 48.2615 101.428 48.2615 101.49C48.2615 102.852 47.1626 103.936 45.8499 103.936H2.44183C1.09869 103.936 0.0302734 102.821 0.0302734 101.49V16.5951C0.0302734 15.2328 1.12921 14.1492 2.44183 14.1492H45.8499C47.1931 14.1492 48.2615 15.883 48.2615 16.5951C48.2615 17.3072 48.2615 16.7809 48.2615 16.8428V101.242Z" fill="white"/>
<path fill-rule="evenodd" clip-rule="evenodd" d="M24.9395 148.025H138.069C139.687 148.025 141.03 149.356 141.03 151.028C141.03 152.669 139.718 154.031 138.069 154.031H24.9395C23.3217 154.031 21.9785 152.7 21.9785 151.028C21.9785 149.356 23.2911 148.025 24.9395 148.025Z" fill="white"/>
</svg>
