<?xml version="1.0" encoding="UTF-8" ?>
<svg width="153" height="152" viewBox="0 0 153 152" fill="none" xmlns="http://www.w3.org/2000/svg">
<rect width="152" height="152" transform="translate(0.5)" fill="white"/>
<path d="M76.5 40C64.875 40.1875 55.5 49.5625 55.5 61C55.5 62.6875 56.8125 64 58.5 64C60 64 61.5 62.6875 61.5 61C61.5 52.75 68.0625 46.1875 76.5 46C78 46 79.5 44.6875 79.5 43C79.5 41.5 78 40 76.5 40ZM76.5 28C57.1875 28 43.3125 43.75 43.5 61.1875C43.5 69.4375 46.5 76.9375 51.5625 82.75C56.4375 88.1875 60.9375 97.1875 61.5 100V114.25C61.5 114.812 61.6875 115.375 61.875 115.938L66.5625 122.688C67.125 123.625 68.0625 124 69 124H83.8125C84.75 124 85.6875 123.625 86.25 122.688L90.9375 115.75C91.125 115.375 91.3125 114.812 91.3125 114.25L91.5 100C91.875 97.1875 96.5625 88.1875 101.25 82.75C106.312 76.9375 109.312 69.4375 109.312 61C109.312 42.8125 94.6875 28.1875 76.5 28.1875V28ZM85.3125 113.312L82.125 118H70.6875L67.5 113.312V112H85.3125V113.312ZM85.5 106H67.5L67.3125 100H85.5V106ZM96.75 78.8125C94.125 81.8125 90 87.8125 87.1875 94H65.625C62.8125 87.8125 58.6875 81.8125 56.0625 78.8125C51.9375 74.125 49.5 67.9375 49.5 61.1875C49.5 61.1875 49.5 61.1875 49.5 61C49.3125 46.5625 60.75 34 76.5 34C91.3125 34 103.5 46.1875 103.5 61C103.312 67.9375 100.875 74.125 96.75 78.8125ZM34.5 61C34.5 59.5 33 58 31.5 58H19.5C17.8125 58 16.5 59.5 16.5 61C16.5 62.6875 17.8125 64 19.5 64H31.5C33 64 34.5 62.6875 34.5 61ZM115.5 40C115.875 40 116.438 40 116.812 39.8125L128.812 33.8125C129.75 33.25 130.5 32.3125 130.5 31C130.5 29.5 129 28 127.5 28C126.938 28 126.375 28.1875 126 28.375L114 34.375C113.062 34.9375 112.312 35.875 112.312 37.1875C112.312 38.6875 113.812 40.1875 115.312 40.1875L115.5 40ZM133.5 58H121.5C119.812 58 118.5 59.5 118.5 61C118.5 62.6875 119.812 64 121.5 64H133.5C135 64 136.5 62.6875 136.5 61C136.5 59.5 135 58 133.5 58ZM38.8125 34.375L26.8125 28.375C26.4375 28.1875 25.875 28.1875 25.5 28.1875C23.8125 28.1875 22.5 29.5 22.5 31.1875C22.5 32.3125 23.0625 33.25 24 33.8125L36 39.8125C36.375 40 36.9375 40 37.5 40C39 40 40.5 38.6875 40.5 37C40.5 35.875 39.75 34.9375 38.8125 34.375ZM128.812 88.375L116.812 82.375C116.438 82.1875 115.875 82.1875 115.5 82.1875C113.812 82.1875 112.5 83.5 112.5 85.1875C112.5 86.3125 113.062 87.25 114 87.8125L126 93.8125C126.375 94 126.938 94.1875 127.312 94.1875C129 94.1875 130.312 92.6875 130.312 91C130.312 89.875 129.75 88.9375 128.812 88.375ZM37.5 82C36.9375 82.1875 36.375 82.1875 36 82.375L24 88.375C23.0625 88.9375 22.3125 89.875 22.3125 91.1875C22.3125 92.6875 23.8125 94.1875 25.3125 94.1875C25.875 94.1875 26.4375 94 26.8125 93.8125L38.8125 87.8125C39.75 87.25 40.5 86.3125 40.5 85C40.5 83.5 39 82 37.5 82Z" fill="#E74011"/>
</svg>
