<?xml version="1.0" encoding="UTF-8" ?>
<svg width="152" height="153" viewBox="0 0 152 153" fill="none" xmlns="http://www.w3.org/2000/svg">
<rect width="152" height="152" transform="translate(0 0.5)" fill="white"/>
<path d="M34 94.5H22C20.3125 94.5 19 96 19 97.5V121.5C19 123.188 20.3125 124.5 22 124.5H34C35.5 124.5 37 123.188 37 121.5V97.5C37 96 35.5 94.5 34 94.5ZM31 118.5H25V100.5H31V118.5ZM124 64.5H112C110.312 64.5 109 66 109 67.5V121.5C109 123.188 110.312 124.5 112 124.5H124C125.5 124.5 127 123.188 127 121.5V67.5C127 66 125.5 64.5 124 64.5ZM121 118.5H115V70.5H121V118.5ZM113.125 45.1875C114.625 46.125 116.125 46.5 118 46.5C122.875 46.5 127 42.5625 127 37.5C127 32.625 122.875 28.5 118 28.5C112.938 28.5 109 32.625 109 37.5C109 38.625 109.188 39.5625 109.375 40.5L92.6875 54C91.1875 53.0625 89.6875 52.5 88 52.5C86.125 52.5 84.625 53.0625 83.125 54L66.4375 40.5C66.625 39.5625 67 38.625 67 37.5C67 32.625 62.875 28.5 58 28.5C52.9375 28.5 49 32.625 49 37.5C49 39 49.1875 40.3125 49.75 41.4375L31.75 59.4375C30.625 58.875 29.3125 58.5 28 58.5C22.9375 58.5 19 62.625 19 67.5C19 72.5625 22.9375 76.5 28 76.5C32.875 76.5 37 72.5625 37 67.5C37 66.1875 36.625 64.875 36.0625 63.75L54.0625 45.75C55.1875 46.3125 56.5 46.5 58 46.5C59.6875 46.5 61.1875 46.125 62.6875 45.1875L79.375 58.6875C79.1875 59.625 79 60.5625 79 61.5C79 66.5625 82.9375 70.5 88 70.5C92.875 70.5 97 66.5625 97 61.5C97 60.5625 96.625 59.625 96.4375 58.6875L113.125 45.1875ZM118 34.5C119.5 34.5 121 36 121 37.5C121 39.1875 119.5 40.5 118 40.5C116.312 40.5 115 39.1875 115 37.5C115 36 116.312 34.5 118 34.5ZM28 70.5C26.3125 70.5 25 69.1875 25 67.5C25 66 26.3125 64.5 28 64.5C29.5 64.5 31 66 31 67.5C31 69.1875 29.5 70.5 28 70.5ZM58 40.5C56.3125 40.5 55 39.1875 55 37.5C55 36 56.3125 34.5 58 34.5C59.5 34.5 61 36 61 37.5C61 39.1875 59.5 40.5 58 40.5ZM88 64.5C86.3125 64.5 85 63.1875 85 61.5C85 60 86.3125 58.5 88 58.5C89.5 58.5 91 60 91 61.5C91 63.1875 89.5 64.5 88 64.5ZM64 64.5H52C50.3125 64.5 49 66 49 67.5V121.5C49 123.188 50.3125 124.5 52 124.5H64C65.5 124.5 67 123.188 67 121.5V67.5C67 66 65.5 64.5 64 64.5ZM61 118.5H55V70.5H61V118.5ZM94 88.5H82C80.3125 88.5 79 90 79 91.5V121.5C79 123.188 80.3125 124.5 82 124.5H94C95.5 124.5 97 123.188 97 121.5V91.5C97 90 95.5 88.5 94 88.5ZM91 118.5H85V94.5H91V118.5Z" fill="#E74011"/>
</svg>
