<?xml version="1.0" encoding="UTF-8" ?>
<svg width="152" height="153" viewBox="0 0 152 153" fill="none" xmlns="http://www.w3.org/2000/svg">
<rect width="152" height="152" transform="translate(0 0.5)" fill="white"/>
<path d="M49 78C46.375 78 44.5 80.0625 44.5 82.5C44.5 85.125 46.375 87 49 87C51.4375 87 53.5 85.125 53.5 82.5C53.5 80.0625 51.4375 78 49 78ZM55 57C52.375 57 50.5 59.0625 50.5 61.5C50.5 64.125 52.375 66 55 66C57.4375 66 59.5 64.125 59.5 61.5C59.5 59.0625 57.4375 57 55 57ZM76 28.5C72.8125 28.5 69.4375 28.875 66.25 29.4375C47.5 33.1875 32.5 48.1875 28.9375 66.75C22.375 99.5625 49.75 124.5 72.8125 124.5C74.3125 124.5 76 124.5 77.5 124.312C85.1875 123 88.9375 114 85.375 107.062C81.0625 98.4375 87.25 88.5 96.8125 88.5H111.812C118.562 88.5 124 83.0625 124 76.3125C123.812 49.875 102.438 28.5 76 28.5ZM111.812 82.5H96.8125C90.25 82.5 84.25 85.875 80.6875 91.5C77.3125 97.125 77.125 103.875 80.125 109.688C80.875 111.562 80.875 113.812 79.9375 115.688C79.5625 116.438 78.625 117.938 76.5625 118.312C75.25 118.5 74.125 118.688 72.8125 118.688C62.5 118.688 51.4375 112.688 43.75 103.312C35.5 93.1875 32.3125 80.625 34.75 67.875C37.9375 51.75 51.0625 38.625 67.375 35.4375C70.1875 34.875 73.1875 34.6875 76 34.6875C99.0625 34.6875 117.812 53.25 118 76.3125C118 79.6875 115.188 82.5 111.812 82.5ZM97 54C94.375 54 92.5 56.0625 92.5 58.5C92.5 61.125 94.375 63 97 63C99.4375 63 101.5 61.125 101.5 58.5C101.5 56.0625 99.4375 54 97 54ZM73 45C70.375 45 68.5 47.0625 68.5 49.5C68.5 52.125 70.375 54 73 54C75.4375 54 77.5 52.125 77.5 49.5C77.5 47.0625 75.4375 45 73 45Z" fill="#E74011"/>
</svg>
