<?xml version="1.0" encoding="UTF-8" ?>
<svg width="152" height="153" viewBox="0 0 152 153" fill="none" xmlns="http://www.w3.org/2000/svg">
<rect width="152" height="152" transform="translate(0 0.5)" fill="white"/>
<path d="M103 88.5C103 87 101.5 85.5 100 85.5C98.3125 85.5 97 87 97 88.5V94.5H103V88.5ZM122.312 110.25L118 108V103.5C118 102 116.5 100.5 115 100.5H114.625L114.25 85.125L118.75 81.1875C120.062 80.25 121 78.5625 121 76.6875V61.5C121 60 119.5 58.5 118 58.5H82C80.3125 58.5 79 60 79 61.5V76.6875C79 78.5625 79.75 80.25 81.0625 81.1875L85.5625 85.125L85.1875 100.5H85C83.3125 100.5 82 102 82 103.5V108L77.5 110.25C76.5625 110.812 76 111.75 76 112.875C76 111.75 75.25 110.812 74.3125 110.25L70 108V103.5C70 102 68.5 100.5 67 100.5H65.6875C64.5625 94.875 64 89.25 64 83.4375V76.5H68.5C69.25 76.5 70 75.9375 70 75V72C70 71.25 69.25 70.5 68.5 70.5H65.3125L71.125 54.75C71.5 54 71.5 53.25 71.5 52.6875C71.5 49.3125 68.875 46.6875 65.5 46.6875V46.5H55V40.5H59.5C60.25 40.5 61 39.9375 61 39V36C61 35.25 60.25 34.5 59.5 34.5H55V30C55 29.25 54.25 28.5 53.5 28.5H50.5C49.5625 28.5 49 29.25 49 30V34.5H44.5C43.5625 34.5 43 35.25 43 36V39C43 39.9375 43.5625 40.5 44.5 40.5H49V46.5H38.3125C34.9375 46.5 32.3125 49.3125 32.3125 52.5C32.3125 53.25 32.3125 54 32.6875 54.75L38.5 70.5H35.5C34.5625 70.5 34 71.25 34 72V75C34 75.9375 34.5625 76.5 35.5 76.5H40V83.4375C40 89.25 39.25 94.875 38.125 100.5H37C35.3125 100.5 34 102 34 103.5V108L29.5 110.25C28.75 110.625 28.375 111.375 28.1875 112.312C28 112.5 28 112.688 28 112.875V121.5C28 123.188 29.3125 124.5 31 124.5H73C74.5 124.5 76 123.188 76 121.5C76 123.188 77.3125 124.5 79 124.5H121C122.5 124.5 124 123.188 124 121.5V112.875C124 111.75 123.25 110.812 122.312 110.25ZM38.3125 52.5H65.5L58.75 70.5H45.0625L38.3125 52.5ZM59.5 100.5H44.3125C45.25 95.0625 45.8125 89.25 46 83.4375V76.5H58V83.4375C58 89.25 58.5625 95.0625 59.5 100.5ZM70 118.5H34V114.75L40 111.75V106.5H64V111.75L70 114.75V118.5ZM85 76.6875V64.5H91V70.5H97V64.5H103V70.5H109V64.5H115V76.6875L110.312 80.625L108.062 82.5L108.25 85.3125L108.625 100.5H91.1875L91.5625 85.3125L91.75 82.5L89.5 80.625L85 76.6875ZM118 118.5H82V114.75L88 111.75V106.5H112V111.75L118 114.75V118.5Z" fill="#E74011"/>
</svg>
