<?xml version="1.0" encoding="UTF-8" ?>
<svg width="153" height="152" viewBox="0 0 153 152" fill="none" xmlns="http://www.w3.org/2000/svg">
<rect width="152" height="152" transform="translate(0.5)" fill="white"/>
<path d="M103.5 40H86.8125C86.8125 39.625 87 39.0625 87 38.5C87 32.875 82.125 28 76.5 28C70.6875 28 66 32.875 66 38.5C66 39.0625 66 39.625 66 40H49.5C44.4375 40 40.5 44.125 40.5 49V115C40.5 120.062 44.4375 124 49.5 124H103.5C108.375 124 112.5 120.062 112.5 115V49C112.5 44.125 108.375 40 103.5 40ZM76.5 34C78.9375 34 81 36.0625 81 38.5C81 41.125 78.9375 43 76.5 43C73.875 43 72 41.125 72 38.5C72 36.0625 73.875 34 76.5 34ZM106.5 115C106.5 116.688 105 118 103.5 118H49.5C47.8125 118 46.5 116.688 46.5 115V49C46.5 47.5 47.8125 46 49.5 46H58.5V49.75C58.5 51.0625 59.4375 52 60.75 52H92.25C93.375 52 94.5 51.0625 94.5 49.75V46H103.5C105 46 106.5 47.5 106.5 49V115ZM95.4375 70.75C94.5 69.8125 93 69.8125 92.25 70.75L70.125 92.6875L60.75 83.125C59.8125 82.1875 58.3125 82.1875 57.5625 83.125L55.875 84.8125C54.9375 85.5625 54.9375 87.0625 55.875 88L68.4375 100.562C69.375 101.5 70.875 101.5 71.625 100.562L96.9375 75.625C97.875 74.6875 97.875 73.1875 96.9375 72.4375L95.4375 70.75Z" fill="#E74011"/>
</svg>
