<?xml version="1.0" encoding="UTF-8" ?>
<svg width="152" height="153" viewBox="0 0 152 153" fill="none" xmlns="http://www.w3.org/2000/svg">
<rect width="152" height="152" transform="translate(0 0.5)" fill="white"/>
<path d="M75.1875 73.6875L33.75 85.5C30.9375 86.25 30.5625 90.375 33.375 91.6875L43.6875 96.5625L32.25 108C30 110.25 30 114.188 32.25 116.438L36.5625 120.75C37.6875 121.875 39.1875 122.438 40.6875 122.438C42.375 122.438 43.875 121.875 45 120.75L56.4375 109.312L61.3125 119.625C61.875 120.938 63.1875 121.5 64.3125 121.5C65.625 121.5 67.125 120.75 67.5 119.25L79.3125 77.8125C80.0625 75.375 77.625 72.9375 75.1875 73.6875ZM63.75 110.812L58.125 99.1875L40.6875 116.438L36.5625 112.312L53.8125 94.875L42.1875 89.25L72.1875 80.8125L63.75 110.812ZM91.5 76.5C91.5 68.25 84.75 61.5 76.5 61.5C70.125 61.5 64.6875 65.625 62.4375 71.0625C72.75 68.25 74.25 67.5 76.5 67.5C81.375 67.5 85.5 71.625 85.5 76.5C85.5 78.75 84.75 80.25 81.9375 90.5625C87.375 88.3125 91.5 82.875 91.5 76.5ZM77.0625 107.25C93.75 106.875 107.25 93.375 107.25 76.5C107.25 59.625 93.375 45.75 76.5 45.75C59.625 45.75 46.125 59.25 45.75 75.9375L51.9375 74.0625C53.25 61.6875 63.5625 51.75 76.5 51.75C90 51.75 101.25 63 101.25 76.5C101.25 89.4375 91.3125 99.75 78.9375 101.062L77.0625 107.25ZM76.5 30C50.8125 30 30 51 30 76.5C30 78 30 79.3125 30.1875 80.625C30.75 80.25 31.5 79.875 32.25 79.6875L36 78.5625C36 78 36 77.25 36 76.5C36 54.1875 54 36 76.5 36C98.8125 36 117 54.1875 117 76.5C117 99 98.8125 117 76.5 117C75.75 117 75 117 74.4375 117L73.3125 120.75C73.125 121.5 72.75 122.25 72.375 122.812C73.6875 123 75 123 76.5 123C102 123 123 102.188 123 76.5C123 51 102 30 76.5 30Z" fill="#E74011"/>
</svg>
