<?xml version="1.0" encoding="UTF-8" ?>
<svg width="152" height="153" viewBox="0 0 152 153" fill="none" xmlns="http://www.w3.org/2000/svg">
<rect width="152" height="152" transform="translate(0 0.5)" fill="white"/>
<path d="M65.875 80.625L67.9375 78.5625C68.5 78 68.5 77.0625 67.9375 76.5L59.125 67.5L67.9375 58.6875C68.5 58.125 68.5 57.1875 67.9375 56.625L65.875 54.5625C65.3125 54 64.375 54 63.8125 54.5625L51.8125 66.5625C51.0625 67.125 51.0625 68.0625 51.8125 68.625L63.8125 80.625C64.375 81.1875 65.3125 81.1875 65.875 80.625ZM83.875 78.5625L85.9375 80.625C86.5 81.1875 87.4375 81.1875 88 80.625L100 68.625C100.75 68.0625 100.75 67.125 100 66.5625L88 54.5625C87.4375 54 86.5 54 85.9375 54.5625L83.875 56.625C83.3125 57.1875 83.3125 58.125 83.875 58.6875L92.6875 67.5L83.875 76.5C83.5 76.6875 83.5 77.0625 83.5 77.4375C83.5 77.8125 83.5 78.1875 83.875 78.5625ZM133 97.5H124V46.5C124 39.9375 118.562 34.5 112 34.5H40C33.25 34.5 28 39.9375 28 46.5V97.5H19C17.3125 97.5 16 99 16 100.5V109.5C16 117.938 22.5625 124.5 31 124.5H121C129.25 124.5 136 117.938 136 109.5V100.5C136 99 134.5 97.5 133 97.5ZM34 46.5C34 43.3125 36.625 40.5 40 40.5H112C115.188 40.5 118 43.3125 118 46.5V97.5H89.3125C88.5625 97.5 88 98.25 87.8125 99C87.0625 101.625 84.8125 103.5 82 103.5H70C67 103.5 64.75 101.625 64 99C63.8125 98.25 63.25 97.5 62.5 97.5H34V46.5ZM130 109.5C130 114.562 125.875 118.5 121 118.5H31C25.9375 118.5 22 114.562 22 109.5V103.5H58.375C59.6875 107.062 63.0625 109.5 67 109.5H85C88.75 109.5 92.125 107.062 93.4375 103.5H130V109.5Z" fill="#E74011"/>
</svg>
