<svg width="153" height="152" viewBox="0 0 153 152" fill="none" xmlns="http://www.w3.org/2000/svg">
<rect width="152" height="152" transform="translate(0.5)" fill="white"/>
<path d="M37.5 94H25.5C23.8125 94 22.5 95.5 22.5 97V121C22.5 122.688 23.8125 124 25.5 124H37.5C39 124 40.5 122.688 40.5 121V97C40.5 95.5 39 94 37.5 94ZM34.5 118H28.5V100H34.5V118ZM127.5 64H115.5C113.812 64 112.5 65.5 112.5 67V121C112.5 122.688 113.812 124 115.5 124H127.5C129 124 130.5 122.688 130.5 121V67C130.5 65.5 129 64 127.5 64ZM124.5 118H118.5V70H124.5V118ZM116.625 44.6875C118.125 45.625 119.625 46 121.5 46C126.375 46 130.5 42.0625 130.5 37C130.5 32.125 126.375 28 121.5 28C116.438 28 112.5 32.125 112.5 37C112.5 38.125 112.688 39.0625 112.875 40L96.1875 53.5C94.6875 52.5625 93.1875 52 91.5 52C89.625 52 88.125 52.5625 86.625 53.5L69.9375 40C70.125 39.0625 70.5 38.125 70.5 37C70.5 32.125 66.375 28 61.5 28C56.4375 28 52.5 32.125 52.5 37C52.5 38.5 52.6875 39.8125 53.25 40.9375L35.25 58.9375C34.125 58.375 32.8125 58 31.5 58C26.4375 58 22.5 62.125 22.5 67C22.5 72.0625 26.4375 76 31.5 76C36.375 76 40.5 72.0625 40.5 67C40.5 65.6875 40.125 64.375 39.5625 63.25L57.5625 45.25C58.6875 45.8125 60 46 61.5 46C63.1875 46 64.6875 45.625 66.1875 44.6875L82.875 58.1875C82.6875 59.125 82.5 60.0625 82.5 61C82.5 66.0625 86.4375 70 91.5 70C96.375 70 100.5 66.0625 100.5 61C100.5 60.0625 100.125 59.125 99.9375 58.1875L116.625 44.6875ZM121.5 34C123 34 124.5 35.5 124.5 37C124.5 38.6875 123 40 121.5 40C119.812 40 118.5 38.6875 118.5 37C118.5 35.5 119.812 34 121.5 34ZM31.5 70C29.8125 70 28.5 68.6875 28.5 67C28.5 65.5 29.8125 64 31.5 64C33 64 34.5 65.5 34.5 67C34.5 68.6875 33 70 31.5 70ZM61.5 40C59.8125 40 58.5 38.6875 58.5 37C58.5 35.5 59.8125 34 61.5 34C63 34 64.5 35.5 64.5 37C64.5 38.6875 63 40 61.5 40ZM91.5 64C89.8125 64 88.5 62.6875 88.5 61C88.5 59.5 89.8125 58 91.5 58C93 58 94.5 59.5 94.5 61C94.5 62.6875 93 64 91.5 64ZM67.5 64H55.5C53.8125 64 52.5 65.5 52.5 67V121C52.5 122.688 53.8125 124 55.5 124H67.5C69 124 70.5 122.688 70.5 121V67C70.5 65.5 69 64 67.5 64ZM64.5 118H58.5V70H64.5V118ZM97.5 88H85.5C83.8125 88 82.5 89.5 82.5 91V121C82.5 122.688 83.8125 124 85.5 124H97.5C99 124 100.5 122.688 100.5 121V91C100.5 89.5 99 88 97.5 88ZM94.5 118H88.5V94H94.5V118Z" fill="#E74011"/>
</svg>
