<svg width="152" height="152" viewBox="0 0 152 152" fill="none" xmlns="http://www.w3.org/2000/svg">
<rect width="152" height="152" fill="white"/>
<path d="M70 46L73 40L79 37L73 34L70 28L67 34L61 37L67 40L70 46ZM43 58L47.875 48.0625L58 43L47.875 38.125L43 28L37.9375 38.125L28 43L37.9375 48.0625L43 58ZM43 40C44.5 40 46 41.5 46 43C46 44.6875 44.5 46 43 46C41.3125 46 40 44.6875 40 43C40 41.5 41.3125 40 43 40ZM109 82L103.938 92.125L94 97L103.938 102.062L109 112L113.875 102.062L124 97L113.875 92.125L109 82ZM109 100C107.312 100 106 98.6875 106 97C106 95.5 107.312 94 109 94C110.5 94 112 95.5 112 97C112 98.6875 110.5 100 109 100ZM122.125 42.625L109.375 29.875C108.062 28.75 106.562 28 105.062 28C103.562 28 102.062 28.75 100.75 29.875L29.6875 100.938C27.25 103.375 27.25 107.125 29.6875 109.562L42.4375 122.312C43.75 123.438 45.25 124 46.75 124C48.25 124 49.75 123.438 51.0625 122.312L122.125 51.25C124.562 48.8125 124.562 45.0625 122.125 42.625ZM46.75 118L34 105.25L82.375 56.875L95.125 69.625L46.75 118ZM99.4375 65.3125L86.6875 52.5625L105.062 34L118 46.9375L99.4375 65.3125Z" fill="#E74011"/>
</svg>
