<svg width="152" height="152" viewBox="0 0 152 152" fill="none" xmlns="http://www.w3.org/2000/svg">
<rect width="152" height="152" fill="white"/>
<path d="M55 64C59.875 64 64 60.0625 64 55C64 50.125 59.875 46 55 46C49.9375 46 46 50.125 46 55C46 60.0625 49.9375 64 55 64ZM55 52C56.5 52 58 53.5 58 55C58 56.6875 56.5 58 55 58C53.3125 58 52 56.6875 52 55C52 53.5 53.3125 52 55 52ZM112 34H40C36.625 34 34 36.8125 34 40V112C34 115.375 36.625 118 40 118H112C115.188 118 118 115.375 118 112V40C118 36.8125 115.188 34 112 34ZM112 112H40V97H112V112ZM49.9375 91L59.6875 78.0625L67.1875 88L64.9375 91H49.9375ZM72.4375 91L86.6875 72.0625L100.938 91H72.4375ZM112 91H108.438L89.125 65.3125C87.8125 63.8125 85.375 63.8125 84.25 65.3125L70.9375 83.125L62.125 71.3125C60.8125 69.8125 58.375 69.8125 57.25 71.3125L42.4375 91H40V40H112V91Z" fill="#E74011"/>
</svg>
