<svg width="152" height="153" viewBox="0 0 152 153" fill="none" xmlns="http://www.w3.org/2000/svg">
<rect width="152" height="152" transform="translate(0 0.5)" fill="white"/>
<path d="M110.5 40.5H109V44.25C109 45.5625 107.875 46.5 106.75 46.5H99.25C97.9375 46.5 97 45.5625 97 44.25V40.5H37V44.25C37 45.5625 35.875 46.5 34.75 46.5H27.25C25.9375 46.5 25 45.5625 25 44.25V40.5H23.5C20.875 40.5 19 42.5625 19 45V108C19 110.625 20.875 112.5 23.5 112.5H25V108.75C25 107.625 25.9375 106.5 27.25 106.5H34.75C35.875 106.5 37 107.625 37 108.75V112.5H97V108.75C97 107.625 97.9375 106.5 99.25 106.5H106.75C107.875 106.5 109 107.625 109 108.75V112.5H110.5C112.938 112.5 115 110.625 115 108V45C115 42.5625 112.938 40.5 110.5 40.5ZM37 98.25C37 99.5625 35.875 100.5 34.75 100.5H27.25C25.9375 100.5 25 99.5625 25 98.25V90.75C25 89.625 25.9375 88.5 27.25 88.5H34.75C35.875 88.5 37 89.625 37 90.75V98.25ZM37 80.25C37 81.5625 35.875 82.5 34.75 82.5H27.25C25.9375 82.5 25 81.5625 25 80.25V72.75C25 71.625 25.9375 70.5 27.25 70.5H34.75C35.875 70.5 37 71.625 37 72.75V80.25ZM37 62.25C37 63.5625 35.875 64.5 34.75 64.5H27.25C25.9375 64.5 25 63.5625 25 62.25V54.75C25 53.625 25.9375 52.5 27.25 52.5H34.75C35.875 52.5 37 53.625 37 54.75V62.25ZM91 104.25C91 105.562 89.875 106.5 88.75 106.5H45.25C43.9375 106.5 43 105.562 43 104.25V81.75C43 80.625 43.9375 79.5 45.25 79.5H88.75C89.875 79.5 91 80.625 91 81.75V104.25ZM91 71.25C91 72.5625 89.875 73.5 88.75 73.5H45.25C43.9375 73.5 43 72.5625 43 71.25V48.75C43 47.625 43.9375 46.5 45.25 46.5H88.75C89.875 46.5 91 47.625 91 48.75V71.25ZM109 98.25C109 99.5625 107.875 100.5 106.75 100.5H99.25C97.9375 100.5 97 99.5625 97 98.25V90.75C97 89.625 97.9375 88.5 99.25 88.5H106.75C107.875 88.5 109 89.625 109 90.75V98.25ZM109 80.25C109 81.5625 107.875 82.5 106.75 82.5H99.25C97.9375 82.5 97 81.5625 97 80.25V72.75C97 71.625 97.9375 70.5 99.25 70.5H106.75C107.875 70.5 109 71.625 109 72.75V80.25ZM109 62.25C109 63.5625 107.875 64.5 106.75 64.5H99.25C97.9375 64.5 97 63.5625 97 62.25V54.75C97 53.625 97.9375 52.5 99.25 52.5H106.75C107.875 52.5 109 53.625 109 54.75V62.25Z" fill="#E74011"/>
</svg>
