<svg width="152" height="152" viewBox="0 0 152 152" fill="none" xmlns="http://www.w3.org/2000/svg">
<rect width="152" height="152" fill="white"/>
<path d="M119.688 55.1875C130.562 43.1875 118.562 28 106.375 28C102.062 28 97.5625 30.0625 94.1875 34.75L63.0625 81.4375C54.625 81.8125 46.9375 85.1875 42.625 96.625C42.0625 97.9375 40.9375 98.6875 39.625 98.6875C37.1875 98.6875 30.0625 92.875 28 91.375C28 108.812 35.875 124 55 124C81.4375 124 82.1875 102.062 81.625 96.8125L119.688 55.1875ZM71.125 112.375C67.75 116.125 62.3125 118 55 118C43.1875 118 37.9375 111.062 35.6875 103.75C37 104.5 38.3125 104.688 39.625 104.688C43.375 104.688 46.9375 102.438 48.25 98.6875C49.5625 95.3125 51.625 88.1875 64.9375 87.25L75.625 96.625C76.1875 102.062 74.875 108.25 71.125 112.375ZM78.625 91.375L69.25 82.9375L99.25 38.3125C101.125 35.5 103.562 34 106.375 34C110.688 34 115.375 37.1875 117.062 41.3125C118.562 44.6875 118 48.0625 115.188 51.0625L78.625 91.375Z" fill="#E74011"/>
</svg>
