<svg width="152" height="153" viewBox="0 0 152 153" fill="none" xmlns="http://www.w3.org/2000/svg">
<rect width="152" height="152" transform="translate(0 0.5)" fill="white"/>
<path d="M100.188 85.6875C104.312 82.3125 107.875 78.1875 110.688 73.6875C111.062 72.9375 110.875 72 110.125 71.625L107.5 70.125C106.938 69.75 106 69.9375 105.625 70.6875C103.188 74.25 100.375 77.625 97.1875 80.4375L82.5625 55.125C84.0625 52.6875 85 49.6875 85 46.5C85 36.5625 76.9375 28.5 67 28.5C56.875 28.5 49 36.5625 49 46.5C49 49.6875 49.75 52.6875 51.25 55.125L37 79.875C34 77.0625 31.1875 74.0625 29.125 70.6875C28.75 69.9375 27.8125 69.75 27.0625 70.125L24.4375 71.625C23.6875 72 23.5 72.9375 23.875 73.6875C26.6875 78 30.0625 81.75 33.8125 85.125L19 111L20.3125 121.875C20.5 123.562 21.8125 124.688 23.125 124.688C23.5 124.688 24.0625 124.5 24.4375 124.312L34.5625 120L49.1875 94.5C55 96.5625 61 97.875 67.375 97.875C73.375 97.875 79.1875 96.75 84.625 94.6875L99.25 120L109.375 124.312C109.75 124.5 110.312 124.688 110.688 124.688C112 124.688 113.312 123.562 113.5 121.875L115 111L100.188 85.6875ZM92.5 84C90.8125 85.125 89.125 86.25 87.25 87.1875L73.5625 63.375C75.4375 62.625 77.125 61.5 78.625 60.1875L92.5 84ZM67 34.5C73.5625 34.5 79 39.9375 79 46.5C79 53.25 73.5625 58.5 67 58.5C60.25 58.5 55 53.25 55 46.5C55 39.9375 60.25 34.5 67 34.5ZM30.25 115.312L25.75 117.188L25.1875 112.312L55.1875 60.1875C56.6875 61.5 58.375 62.625 60.25 63.375L30.25 115.312ZM67.375 91.875C62.125 91.875 57.0625 90.9375 52.375 89.25L66.4375 64.5C66.625 64.5 66.8125 64.6875 66.8125 64.6875C67 64.6875 67.1875 64.5 67.375 64.5L81.625 89.4375C77.125 90.9375 72.25 91.875 67.375 91.875ZM108.062 117.188L103.562 115.312L90.25 92.25C91.9375 91.3125 93.8125 90.375 95.5 89.25L108.625 112.312L108.062 117.188Z" fill="#E74011"/>
</svg>
