<svg width="152" height="152" viewBox="0 0 152 152" fill="none" xmlns="http://www.w3.org/2000/svg">
<rect width="152" height="152" fill="white"/>
<path d="M125.5 40H38.5C35.875 40 34 42.0625 34 44.5V46H26.5C23.875 46 22 48.0625 22 50.5V103C22 108.062 25.9375 112 31 112H125.5C127.938 112 130 110.125 130 107.5V44.5C130 42.0625 127.938 40 125.5 40ZM28 103V52H34V103C34 104.688 32.5 106 31 106C29.3125 106 28 104.688 28 103ZM124 106H39.4375C39.8125 105.25 39.8125 104.125 39.8125 103.188C39.8125 103.188 40 103.188 40 103V46H124V106ZM48.25 88H79.75C80.875 88 82 87.0625 82 85.75V54.25C82 53.125 80.875 52 79.75 52H48.25C46.9375 52 46 53.125 46 54.25V85.75C46 87.0625 46.9375 88 48.25 88ZM52 58H76V82H52V58ZM46 97.75C46 99.0625 46.9375 100 48.25 100H79.75C80.875 100 82 99.0625 82 97.75V96.25C82 95.125 80.875 94 79.75 94H48.25C46.9375 94 46 95.125 46 96.25V97.75ZM88 97.75C88 99.0625 88.9375 100 90.25 100H115.75C116.875 100 118 99.0625 118 97.75V96.25C118 95.125 116.875 94 115.75 94H90.25C88.9375 94 88 95.125 88 96.25V97.75ZM88 85.75C88 87.0625 88.9375 88 90.25 88H115.75C116.875 88 118 87.0625 118 85.75V84.25C118 83.125 116.875 82 115.75 82H90.25C88.9375 82 88 83.125 88 84.25V85.75ZM88 61.75C88 63.0625 88.9375 64 90.25 64H115.75C116.875 64 118 63.0625 118 61.75V60.25C118 59.125 116.875 58 115.75 58H90.25C88.9375 58 88 59.125 88 60.25V61.75ZM88 73.75C88 75.0625 88.9375 76 90.25 76H115.75C116.875 76 118 75.0625 118 73.75V72.25C118 71.125 116.875 70 115.75 70H90.25C88.9375 70 88 71.125 88 72.25V73.75Z" fill="#E74011"/>
</svg>
