<svg width="152" height="152" viewBox="0 0 152 152" fill="none" xmlns="http://www.w3.org/2000/svg">
<rect width="152" height="152" fill="white"/>
<path d="M128.5 28H23.5C22.5625 28 22 28.75 22 29.6875V32.6875C22 33.4375 22.5625 34.1875 23.5 34.1875H28V88C28 91.375 30.625 94 34 94H73V103.375L56.875 119.312C56.3125 120.062 56.3125 121 56.875 121.562L58.9375 123.625C59.3125 124 59.6875 124 60.0625 124C60.4375 124 60.8125 124 61 123.625L76 108.812L90.8125 123.625C91 124 91.375 124 91.75 124C92.125 124 92.5 124 92.875 123.625L94.9375 121.562C95.5 121 95.5 120.062 94.9375 119.312L79 103.375V94H118C121.188 94 124 91.375 124 88V34.1875H128.5C129.25 34.1875 130 33.4375 130 32.6875V29.6875C130 28.75 129.25 28 128.5 28ZM118 88H34V34H118V88Z" fill="#E74011"/>
</svg>
