<svg width="152" height="152" viewBox="0 0 152 152" fill="none" xmlns="http://www.w3.org/2000/svg">
<rect width="152" height="152" fill="white"/>
<path d="M124 76.1875C124 74.3125 122.875 72.625 121.188 71.875L102.438 63.625L121.188 55.5625C122.875 54.8125 124 53.125 124 51.25C124 49.375 122.875 47.6875 121.188 47.125L78.8125 28.75C76.9375 27.8125 74.875 27.8125 73 28.75L30.625 47.125C28.9375 47.6875 28 49.375 28 51.25C28 53.125 28.9375 54.8125 30.625 55.5625L49.375 63.625L30.625 71.875C28.9375 72.625 28 74.3125 28 76.1875C28 77.875 28.9375 79.5625 30.625 80.3125L49.375 88.5625L30.625 96.625C28.9375 97.375 28 99.0625 28 100.938C28 102.812 28.9375 104.5 30.625 105.062L73 123.438C73.75 123.812 74.875 124 75.8125 124C76.9375 124 77.875 123.812 78.8125 123.438L121.188 105.062C122.875 104.5 123.812 102.812 123.812 100.938C123.812 99.0625 122.875 97.375 121.188 96.625L102.438 88.5625L121.188 80.3125C122.875 79.5625 124 77.875 124 76.1875ZM36.4375 51.25L75.4375 34.375C75.8125 34.1875 76 34.1875 76.375 34.375L115.375 51.25L76.375 68.3125C76 68.3125 75.8125 68.3125 75.4375 68.3125L36.4375 51.25ZM115.375 100.938L76.375 117.812C76 118 75.8125 118 75.4375 117.812L36.4375 100.938L57.0625 91.9375L73 98.6875C73.75 99.0625 74.875 99.25 76 99.25C76.9375 99.25 77.875 99.0625 78.8125 98.6875L94.75 91.9375L115.375 100.938ZM76.375 93.0625C76 93.25 75.8125 93.25 75.4375 93.0625L36.4375 76L57.25 67L73 73.9375C73.75 74.3125 74.875 74.5 76 74.5C76.9375 74.5 77.875 74.3125 78.8125 73.9375L94.75 67L115.375 76.1875L76.375 93.0625Z" fill="#E74011"/>
</svg>
