<svg width="152" height="152" viewBox="0 0 152 152" fill="none" xmlns="http://www.w3.org/2000/svg">
<rect width="152" height="152" fill="white"/>
<path d="M130 94H118V49C118 37.5625 108.438 28 97 28H31C22.5625 28 16 34.75 16 43V58C16 61.375 18.625 64 22 64H40V106C40 115.75 47.5 123.438 56.875 124H115.375C126.625 124 136 114.812 136 103.562V100C136 96.8125 133.188 94 130 94ZM40 58H22V43C22 38.125 25.9375 34 31 34C35.875 34 40 38.125 40 43V58ZM70 106C70 112.75 64.5625 118 58 118C51.25 118 46 112.75 46 106V43C46 39.625 44.875 36.625 42.8125 34H97C105.25 34 112 40.75 112 49V94H76C72.625 94 70 96.8125 70 100V106ZM130 103.562C130 111.625 123.438 118 115.375 118H71.3125C74.125 114.812 76 110.688 76 106V100H130V103.562Z" fill="#E74011"/>
</svg>
