<svg width="152" height="152" viewBox="0 0 152 152" fill="none" xmlns="http://www.w3.org/2000/svg">
<rect width="152" height="152" fill="white"/>
<path d="M70 48.0625C70 46.9375 68.875 45.8125 67.75 45.8125H60.25C58.9375 45.8125 58 46.9375 58 48.0625V55.5625C58 56.875 58.9375 57.8125 60.25 57.8125H67.75C68.875 57.8125 70 56.875 70 55.5625V48.0625ZM91.75 45.8125H84.25C82.9375 45.8125 82 46.9375 82 48.0625V55.5625C82 56.875 82.9375 57.8125 84.25 57.8125H91.75C92.875 57.8125 94 56.875 94 55.5625V48.0625C94 46.9375 92.875 45.8125 91.75 45.8125ZM67.75 63.8125H60.25C58.9375 63.8125 58 64.9375 58 66.0625V73.5625C58 74.875 58.9375 75.8125 60.25 75.8125H67.75C68.875 75.8125 70 74.875 70 73.5625V66.0625C70 64.9375 68.875 63.8125 67.75 63.8125ZM91.75 63.8125H84.25C82.9375 63.8125 82 64.9375 82 66.0625V73.5625C82 74.875 82.9375 75.8125 84.25 75.8125H91.75C92.875 75.8125 94 74.875 94 73.5625V66.0625C94 64.9375 92.875 63.8125 91.75 63.8125ZM67.75 81.8125H60.25C58.9375 81.8125 58 82.9375 58 84.0625V91.5625C58 92.875 58.9375 93.8125 60.25 93.8125H67.75C68.875 93.8125 70 92.875 70 91.5625V84.0625C70 82.9375 68.875 81.8125 67.75 81.8125ZM91.75 81.8125H84.25C82.9375 81.8125 82 82.9375 82 84.0625V91.5625C82 92.875 82.9375 93.8125 84.25 93.8125H91.75C92.875 93.8125 94 92.875 94 91.5625V84.0625C94 82.9375 92.875 81.8125 91.75 81.8125ZM118 120.25C118 119.125 116.875 118 115.75 118H112V32.5C112 30.0625 109.938 28 107.5 28H44.5C41.875 28 40 30.0625 40 32.5V118H36.25C34.9375 118 34 119.125 34 120.25V124H118V120.25ZM106 118H82V102.062C82 100.938 80.875 99.8125 79.75 99.8125H72.25C70.9375 99.8125 70 100.938 70 102.062V118H46V34H106V118Z" fill="#E74011"/>
</svg>
