<svg width="152" height="152" viewBox="0 0 152 152" fill="none" xmlns="http://www.w3.org/2000/svg">
<rect width="152" height="152" fill="white"/>
<path d="M76 40C64.375 40.1875 55 49.5625 55 61C55 62.6875 56.3125 64 58 64C59.5 64 61 62.6875 61 61C61 52.75 67.5625 46.1875 76 46C77.5 46 79 44.6875 79 43C79 41.5 77.5 40 76 40ZM76 28C56.6875 28 42.8125 43.75 43 61.1875C43 69.4375 46 76.9375 51.0625 82.75C55.9375 88.1875 60.4375 97.1875 61 100V114.25C61 114.812 61.1875 115.375 61.375 115.938L66.0625 122.688C66.625 123.625 67.5625 124 68.5 124H83.3125C84.25 124 85.1875 123.625 85.75 122.688L90.4375 115.75C90.625 115.375 90.8125 114.812 90.8125 114.25L91 100C91.375 97.1875 96.0625 88.1875 100.75 82.75C105.812 76.9375 108.812 69.4375 108.812 61C108.812 42.8125 94.1875 28.1875 76 28.1875V28ZM84.8125 113.312L81.625 118H70.1875L67 113.312V112H84.8125V113.312ZM85 106H67L66.8125 100H85V106ZM96.25 78.8125C93.625 81.8125 89.5 87.8125 86.6875 94H65.125C62.3125 87.8125 58.1875 81.8125 55.5625 78.8125C51.4375 74.125 49 67.9375 49 61.1875C49 61.1875 49 61.1875 49 61C48.8125 46.5625 60.25 34 76 34C90.8125 34 103 46.1875 103 61C102.812 67.9375 100.375 74.125 96.25 78.8125ZM34 61C34 59.5 32.5 58 31 58H19C17.3125 58 16 59.5 16 61C16 62.6875 17.3125 64 19 64H31C32.5 64 34 62.6875 34 61ZM115 40C115.375 40 115.938 40 116.312 39.8125L128.312 33.8125C129.25 33.25 130 32.3125 130 31C130 29.5 128.5 28 127 28C126.438 28 125.875 28.1875 125.5 28.375L113.5 34.375C112.562 34.9375 111.812 35.875 111.812 37.1875C111.812 38.6875 113.312 40.1875 114.812 40.1875L115 40ZM133 58H121C119.312 58 118 59.5 118 61C118 62.6875 119.312 64 121 64H133C134.5 64 136 62.6875 136 61C136 59.5 134.5 58 133 58ZM38.3125 34.375L26.3125 28.375C25.9375 28.1875 25.375 28.1875 25 28.1875C23.3125 28.1875 22 29.5 22 31.1875C22 32.3125 22.5625 33.25 23.5 33.8125L35.5 39.8125C35.875 40 36.4375 40 37 40C38.5 40 40 38.6875 40 37C40 35.875 39.25 34.9375 38.3125 34.375ZM128.312 88.375L116.312 82.375C115.938 82.1875 115.375 82.1875 115 82.1875C113.312 82.1875 112 83.5 112 85.1875C112 86.3125 112.562 87.25 113.5 87.8125L125.5 93.8125C125.875 94 126.438 94.1875 126.812 94.1875C128.5 94.1875 129.812 92.6875 129.812 91C129.812 89.875 129.25 88.9375 128.312 88.375ZM37 82C36.4375 82.1875 35.875 82.1875 35.5 82.375L23.5 88.375C22.5625 88.9375 21.8125 89.875 21.8125 91.1875C21.8125 92.6875 23.3125 94.1875 24.8125 94.1875C25.375 94.1875 25.9375 94 26.3125 93.8125L38.3125 87.8125C39.25 87.25 40 86.3125 40 85C40 83.5 38.5 82 37 82Z" fill="#E74011"/>
</svg>
