<svg width="152" height="152" viewBox="0 0 152 152" fill="none" xmlns="http://www.w3.org/2000/svg">
<rect width="152" height="152" fill="white"/>
<path d="M123.438 62.6875L113.875 34.1875C112.75 30.625 109.375 28 105.438 28H46.375C42.4375 28 39.0625 30.625 37.9375 34.1875L28.375 62.6875C28 63.625 28 64.5625 28 65.5V115C28 120.062 31.9375 124 37 124H115C119.875 124 124 120.062 124 115V65.5C124 64.5625 123.812 63.625 123.438 62.6875ZM34 65.5C34 65.3125 34 64.9375 34 64.5625L43.5625 36.0625C43.9375 34.9375 45.0625 34 46.375 34H73V65.5H34ZM118 115C118 116.688 116.5 118 115 118H37C35.3125 118 34 116.688 34 115V71.5H118V115ZM118 65.5H79V34H105.438C106.75 34 107.875 34.9375 108.25 36.0625L117.812 64.5625C117.812 64.9375 118 65.125 118 65.5Z" fill="#E74011"/>
</svg>
