<svg width="152" height="152" viewBox="0 0 152 152" fill="none" xmlns="http://www.w3.org/2000/svg">
<rect width="152" height="152" fill="white"/>
<path d="M88 46H64C60.625 46 58 48.8125 58 52V100C58 103.375 60.625 106 64 106H88C91.1875 106 94 103.375 94 100V52C94 48.8125 91.1875 46 88 46ZM88 100H64V79H88V100ZM88 73H64V52H88V73ZM100 28H52C45.25 28 40 33.4375 40 40V112C40 118.75 45.25 124 52 124H100C106.562 124 112 118.75 112 112V40C112 33.4375 106.562 28 100 28ZM106 112C106 115.375 103.188 118 100 118H80.125C80.3125 117.625 80.3125 117.062 80.3125 116.5C80.3125 114.062 78.4375 112 75.8125 112C73.375 112 71.3125 114.062 71.3125 116.5C71.5 117.062 71.5 117.625 71.6875 118H52C48.625 118 46 115.375 46 112V40C46 36.8125 48.625 34 52 34H71.6875C71.5 34.5625 71.5 35.125 71.5 35.5C71.5 38.125 73.375 40 76 40C78.4375 40 80.5 38.125 80.5 35.5C80.3125 35.125 80.3125 34.5625 80.125 34H100C103.188 34 106 36.8125 106 40V112Z" fill="#E74011"/>
</svg>
