<svg width="1440" height="1172" viewBox="0 0 1440 1172" fill="none" xmlns="http://www.w3.org/2000/svg">
<mask id="mask0" mask-type="alpha" maskUnits="userSpaceOnUse" x="0" y="0" width="1440" height="901">
<rect width="1440" height="901" fill="#E74011"/>
</mask>
<g mask="url(#mask0)">
</g>
<g opacity="0.06" clip-path="url(#clip0)">
<path d="M296.149 471.535L252.868 471.535L201.961 556.247L151.054 471.535L104.208 471.535L177.994 594.095L177.994 662.161L222.067 662.161L222.067 594.59L296.149 471.535ZM-16.0272 662.161L28.0459 662.161L28.0459 507.5L89.0551 507.5L89.0551 471.535L-76.9373 471.535L-76.9373 507.5L-15.9282 507.5L-15.9282 662.161L-16.0272 662.161ZM-134.876 662.161L-83.4739 662.161L-167.064 556.544L-88.1288 471.634L-137.154 471.634L-221.537 560.705L-221.537 471.634L-265.313 471.634L-265.313 662.261L-221.537 662.261L-221.537 614.108L-195.984 587.456L-134.876 662.161ZM-443.982 587.754L-413.775 514.733L-383.567 587.754L-443.982 587.754ZM-352.865 662.161L-306.613 662.161L-391.788 471.535L-435.366 471.535L-520.243 662.161L-475.081 662.161L-458.244 621.341L-369.801 621.341L-352.865 662.161ZM-596.109 540.691C-596.109 561.399 -609.677 573.883 -636.616 573.883L-672.568 573.883L-672.568 507.5L-636.616 507.5C-609.776 507.5 -596.109 519.687 -596.109 540.691ZM-547.975 662.161L-590.661 600.931C-565.901 590.33 -551.441 569.325 -551.441 540.791C-551.441 498.088 -583.332 471.634 -634.14 471.634L-716.641 471.634L-716.641 662.261L-672.568 662.261L-672.568 609.155L-634.14 609.155L-631.961 609.155L-595.217 662.261L-547.975 662.261L-547.975 662.161ZM-866.886 662.161L-822.813 662.161L-822.813 507.5L-761.804 507.5L-761.804 471.535L-927.895 471.535L-927.895 507.5L-866.886 507.5L-866.886 662.161ZM-1016.54 471.535L-1016.54 587.258L-1111.22 471.535L-1147.67 471.535L-1147.67 662.161L-1104.09 662.161L-1104.09 546.438L-1009.11 662.161L-972.859 662.161L-972.859 471.535L-1016.54 471.535ZM-1306.63 627.781C-1340.7 627.781 -1366.25 603.012 -1366.25 566.749C-1366.25 530.585 -1340.7 505.717 -1306.63 505.717C-1272.66 505.717 -1247 530.486 -1247 566.749C-1247 603.012 -1272.66 627.781 -1306.63 627.781ZM-1306.63 665.431C-1246.71 665.431 -1202.44 623.818 -1202.44 566.848C-1202.44 509.977 -1246.81 468.265 -1306.63 468.265C-1366.74 468.265 -1410.92 510.175 -1410.92 566.848C-1410.92 623.422 -1366.74 665.431 -1306.63 665.431ZM-1484.6 662.161L-1433.2 662.161L-1516.79 556.544L-1437.86 471.634L-1486.88 471.634L-1571.26 560.705L-1571.26 471.634L-1615.04 471.634L-1615.04 662.26L-1571.26 662.26L-1571.26 614.108L-1545.71 587.456L-1484.6 662.161ZM-1802.72 662.161L-1758.65 662.161L-1758.65 471.535L-1802.72 471.535L-1802.72 662.161Z" fill="black"/>
<path d="M3927.67 471.535L3884.39 471.535L3833.49 556.247L3782.58 471.535L3735.73 471.535L3809.52 594.095L3809.52 662.161L3853.59 662.161L3853.59 594.59L3927.67 471.535ZM3615.5 662.161L3659.57 662.161L3659.57 507.5L3720.58 507.5L3720.58 471.535L3554.59 471.535L3554.59 507.5L3615.6 507.5L3615.6 662.161L3615.5 662.161ZM3496.65 662.161L3548.05 662.161L3464.46 556.544L3543.4 471.634L3494.37 471.634L3409.99 560.705L3409.99 471.634L3366.21 471.634L3366.21 662.26L3409.99 662.26L3409.99 614.108L3435.54 587.456L3496.65 662.161ZM3187.44 587.754L3217.65 514.733L3247.86 587.754L3187.44 587.754ZM3278.66 662.161L3324.91 662.161L3239.74 471.535L3196.16 471.535L3111.28 662.161L3156.44 662.161L3173.28 621.341L3261.72 621.341L3278.66 662.161ZM3035.32 540.691C3035.32 561.399 3021.75 573.883 2994.81 573.883L2958.86 573.883L2958.86 507.5L2994.81 507.5C3021.75 507.5 3035.32 519.687 3035.32 540.691ZM3083.55 662.161L3040.86 600.931C3065.62 590.33 3080.08 569.325 3080.08 540.79C3080.08 498.088 3048.19 471.634 2997.38 471.634L2914.88 471.634L2914.88 662.26L2958.86 662.26L2958.86 609.154L2997.28 609.154L2999.46 609.154L3036.21 662.26L3083.55 662.26L3083.55 662.161ZM2764.64 662.161L2808.71 662.161L2808.71 507.5L2869.72 507.5L2869.72 471.535L2703.73 471.535L2703.73 507.5L2764.74 507.5L2764.74 662.161L2764.64 662.161ZM2614.89 471.535L2614.89 587.258L2520.21 471.535L2483.76 471.535L2483.76 662.161L2527.34 662.161L2527.34 546.438L2622.32 662.161L2658.57 662.161L2658.57 471.535L2614.89 471.535ZM2324.9 627.781C2290.93 627.781 2265.27 603.012 2265.27 566.749C2265.27 530.585 2290.83 505.717 2324.9 505.717C2358.87 505.717 2384.52 530.486 2384.52 566.749C2384.42 603.012 2358.87 627.781 2324.9 627.781ZM2324.9 665.431C2384.82 665.431 2429.09 623.818 2429.09 566.848C2429.09 509.977 2384.72 468.265 2324.9 468.265C2264.78 468.265 2220.61 510.175 2220.61 566.848C2220.61 623.422 2264.68 665.431 2324.9 665.431ZM2146.92 662.161L2198.32 662.161L2114.73 556.544L2193.67 471.634L2144.64 471.634L2060.26 560.705L2060.26 471.634L2016.48 471.634L2016.48 662.26L2060.26 662.26L2060.26 614.108L2085.81 587.456L2146.92 662.161ZM1828.8 662.161L1872.88 662.161L1872.88 471.535L1828.8 471.535L1828.8 662.161ZM1736.3 662.161L1787.7 662.161L1704.11 556.544L1783.05 471.634L1734.02 471.634L1649.64 560.705L1649.64 471.634L1605.86 471.634L1605.86 662.26L1649.64 662.26L1649.64 614.108L1675.19 587.456L1736.3 662.161ZM1473.35 665.431C1527.82 665.431 1554.16 638.184 1554.16 606.38C1554.16 536.431 1443.44 560.705 1443.44 525.532C1443.44 513.544 1453.54 503.735 1479.59 503.735C1496.42 503.735 1514.65 508.59 1532.37 518.696L1545.94 485.207C1528.21 474.012 1503.75 468.364 1479.78 468.364C1425.61 468.364 1399.46 495.313 1399.46 527.811C1399.46 598.652 1510.19 574.081 1510.19 609.749C1510.19 621.44 1499.59 630.159 1473.44 630.159C1450.57 630.159 1426.6 622.035 1410.55 610.343L1395.6 643.535C1412.73 656.415 1443.14 665.431 1473.35 665.431ZM1261.99 662.161L1306.07 662.161L1306.07 507.5L1367.08 507.5L1367.08 471.535L1201.08 471.535L1201.08 507.5L1262.09 507.5L1262.09 662.161L1261.99 662.161ZM1186.03 471.535L1142.75 471.535L1091.84 556.247L1040.93 471.535L994.088 471.535L1067.87 594.095L1067.87 662.161L1111.95 662.161L1111.95 594.59L1186.03 471.535ZM854.342 662.161L993.989 662.161L993.989 626.196L898.414 626.196L898.414 471.535L854.342 471.535L854.342 662.161ZM675.573 587.754L705.78 514.733L735.988 587.754L675.573 587.754ZM766.69 662.161L812.942 662.161L727.767 471.535L684.19 471.535L599.312 662.161L644.474 662.161L661.311 621.341L749.755 621.341L766.69 662.161ZM521.862 619.657C510.67 625.601 499.578 627.781 487.594 627.781C451.147 627.781 425.792 602.417 425.792 566.749C425.792 530.585 451.147 505.717 488.089 505.717C507.402 505.717 523.447 512.553 537.312 527.217L565.638 501.06C547.117 479.56 519.386 468.166 485.91 468.166C425.198 468.166 381.125 509.283 381.125 566.749C381.125 624.214 425.198 665.332 485.118 665.332C512.354 665.332 541.175 656.91 562.171 641.058L562.171 563.777L521.862 563.777L521.862 619.657Z" fill="black"/>
<path d="M1723.52 234.27L1680.24 234.27L1629.33 318.982L1578.43 234.27L1531.58 234.27L1605.37 356.829L1605.37 424.896L1649.44 424.896L1649.44 357.325L1723.52 234.27ZM1411.35 424.896L1455.42 424.896L1455.42 270.235L1516.43 270.235L1516.43 234.27L1350.44 234.27L1350.44 270.235L1411.45 270.235L1411.45 424.896L1411.35 424.896ZM1292.4 424.896L1343.8 424.896L1260.31 319.18L1339.24 234.27L1290.22 234.27L1205.84 323.341L1205.84 234.27L1162.06 234.27L1162.06 424.896L1205.84 424.896L1205.84 376.645L1231.39 349.993L1292.4 424.896ZM983.292 350.488L1013.5 277.468L1043.71 350.488L983.292 350.488ZM1074.51 424.896L1120.76 424.896L1035.59 234.27L992.008 234.27L907.13 424.896L952.292 424.896L969.129 384.076L1057.57 384.076L1074.51 424.896ZM831.166 303.426C831.166 324.134 817.597 336.617 790.658 336.617L754.707 336.617L754.707 270.235L790.658 270.235C817.597 270.235 831.166 282.422 831.166 303.426ZM879.399 424.896L836.712 363.666C861.472 353.064 875.932 332.06 875.932 303.525C875.932 260.724 844.041 234.369 793.233 234.369L710.633 234.369L710.633 424.995L754.707 424.995L754.707 371.889L793.134 371.889L795.313 371.889L832.057 424.995L879.399 424.995L879.399 424.896ZM560.389 424.896L604.462 424.896L604.462 270.235L665.471 270.235L665.471 234.27L499.479 234.27L499.479 270.235L560.488 270.235L560.488 424.896L560.389 424.896ZM410.738 234.27L410.738 349.993L316.055 234.27L279.608 234.27L279.608 424.896L323.186 424.896L323.186 309.173L418.166 424.896L454.415 424.896L454.415 234.27L410.738 234.27ZM120.648 390.516C86.6769 390.516 61.0255 365.747 61.0255 329.484C61.0255 293.32 86.5779 268.452 120.648 268.452C154.619 268.452 180.27 293.221 180.27 329.484C180.27 365.747 154.718 390.516 120.648 390.516ZM120.648 428.166C180.568 428.166 224.839 386.553 224.839 329.583C224.839 272.712 180.468 231 120.648 231C60.5302 231 16.358 272.91 16.358 329.583C16.457 386.157 60.5302 428.166 120.648 428.166ZM-57.2291 424.896L-5.82703 424.896L-89.4174 319.18L-10.4819 234.27L-59.507 234.27L-143.89 323.341L-143.89 234.27L-187.666 234.27L-187.666 424.896L-143.89 424.896L-143.89 376.645L-118.337 349.993L-57.2291 424.896ZM-375.348 424.896L-331.275 424.896L-331.275 234.27L-375.348 234.27L-375.348 424.896ZM-467.852 424.896L-416.45 424.896L-500.04 319.18L-421.105 234.27L-470.13 234.27L-554.512 323.341L-554.512 234.27L-598.288 234.27L-598.288 424.896L-554.512 424.896L-554.512 376.645L-528.96 349.993L-467.852 424.896ZM-730.805 428.166C-676.332 428.166 -649.988 400.919 -649.988 369.115C-649.988 299.166 -760.715 323.44 -760.715 288.267C-760.715 276.279 -750.613 266.47 -724.565 266.47C-707.728 266.47 -689.505 271.325 -671.777 281.431L-658.208 247.942C-675.936 236.747 -700.399 231.099 -724.367 231.099C-778.542 231.099 -804.689 258.048 -804.689 290.546C-804.689 361.387 -693.962 336.816 -693.962 372.484C-693.962 384.175 -704.559 392.894 -730.706 392.894C-753.584 392.894 -777.552 384.77 -793.597 373.078L-808.552 406.27C-791.517 419.15 -761.012 428.166 -730.805 428.166ZM-942.257 424.896L-898.184 424.896L-898.184 270.235L-837.174 270.235L-837.174 234.27L-1003.17 234.27L-1003.17 270.235L-942.158 270.235L-942.158 424.896L-942.257 424.896ZM-1018.12 234.27L-1061.4 234.27L-1112.31 318.982L-1163.22 234.27L-1210.06 234.27L-1136.28 356.829L-1136.28 424.896L-1092.2 424.896L-1092.2 357.325L-1018.12 234.27ZM-1349.81 424.896L-1210.16 424.896L-1210.16 388.931L-1305.74 388.931L-1305.74 234.27L-1349.81 234.27L-1349.81 424.896ZM-1528.58 350.488L-1498.37 277.468L-1468.16 350.488L-1528.58 350.488ZM-1437.46 424.896L-1391.21 424.896L-1476.38 234.27L-1519.96 234.27L-1604.84 424.896L-1559.68 424.896L-1542.84 384.076L-1454.4 384.076L-1437.46 424.896ZM-1682.29 382.392C-1693.48 388.336 -1704.57 390.516 -1716.56 390.516C-1753 390.516 -1778.36 365.152 -1778.36 329.484C-1778.36 293.32 -1753 268.452 -1716.06 268.452C-1696.75 268.452 -1680.7 275.288 -1666.84 289.952L-1638.51 263.795C-1657.03 242.394 -1684.76 231 -1718.24 231C-1755.58 231 -1786.58 246.555 -1805 271.919L-1805 387.346C-1786.68 412.611 -1755.88 428.166 -1719.03 428.166C-1691.8 428.166 -1662.98 419.744 -1641.98 403.892L-1641.98 326.611L-1682.29 326.611L-1682.29 382.392Z" fill="black"/>
</g>
<g opacity="0.06" clip-path="url(#clip1)">
<path d="M3515.28 -2.48652L3472 -2.48652L3421.08 82.0464L3370.17 -2.48652L3323.32 -2.48652L3397.11 119.814L3397.11 187.737L3441.19 187.737L3441.19 120.309L3515.28 -2.48652ZM3203.07 187.737L3247.15 187.737L3247.15 33.4029L3308.17 33.4029L3308.17 -2.48652L3142.16 -2.48652L3142.16 33.4029L3203.17 33.4029L3203.17 187.737L3203.07 187.737ZM3084.21 187.737L3135.62 187.737L3052.02 82.3429L3130.96 -2.38765L3081.93 -2.38765L2997.54 86.4954L2997.54 -2.38765L2953.76 -2.38765L2953.76 187.836L2997.54 187.836L2997.54 139.786L3023.1 113.19L3084.21 187.737ZM2774.97 113.487L2805.18 40.6203L2835.4 113.487L2774.97 113.487ZM2866.2 187.737L2912.46 187.737L2827.27 -2.48653L2783.69 -2.48653L2698.8 187.737L2743.97 187.737L2760.81 147.003L2849.26 147.003L2866.2 187.737ZM2622.83 66.5239C2622.83 87.1875 2609.26 99.645 2582.32 99.645L2546.36 99.645L2546.36 33.4029L2582.32 33.4029C2609.26 33.4029 2622.83 45.5637 2622.83 66.5239ZM2671.07 187.737L2628.38 126.636C2653.14 116.057 2667.6 95.097 2667.6 66.6228C2667.6 24.0103 2635.71 -2.38766 2584.89 -2.38766L2502.38 -2.38766L2502.38 187.836L2546.36 187.836L2546.36 134.842L2584.8 134.842L2586.97 134.842L2623.72 187.836L2671.07 187.836L2671.07 187.737ZM2352.12 187.737L2396.2 187.737L2396.2 33.4029L2457.22 33.4029L2457.22 -2.48653L2291.21 -2.48653L2291.21 33.4029L2352.22 33.4029L2352.22 187.737L2352.12 187.737ZM2202.36 -2.48653L2202.36 112.992L2107.67 -2.48653L2071.21 -2.48653L2071.21 187.737L2114.8 187.737L2114.8 72.2583L2209.79 187.737L2246.04 187.737L2246.04 -2.48653L2202.36 -2.48653ZM1912.34 153.43C1878.36 153.43 1852.71 128.712 1852.71 92.5264C1852.71 56.4393 1878.26 31.6232 1912.34 31.6232C1946.31 31.6232 1971.97 56.3404 1971.97 92.5264C1971.87 128.712 1946.31 153.43 1912.34 153.43ZM1912.34 191C1972.26 191 2016.54 149.475 2016.54 92.6253C2016.54 35.8746 1972.16 -5.7492 1912.34 -5.7492C1852.21 -5.7492 1808.04 36.0723 1808.04 92.6253C1808.04 149.079 1852.11 191 1912.34 191ZM1734.34 187.737L1785.75 187.737L1702.15 82.3429L1781.09 -2.38766L1732.06 -2.38766L1647.67 86.4954L1647.67 -2.38766L1603.89 -2.38766L1603.89 187.836L1647.67 187.836L1647.67 139.786L1673.23 113.19L1734.34 187.737ZM1416.19 187.737L1460.27 187.737L1460.27 -2.48653L1416.19 -2.48653L1416.19 187.737ZM1323.68 187.737L1375.08 187.737L1291.48 82.3429L1370.43 -2.38766L1321.4 -2.38766L1237.01 86.4954L1237.01 -2.38766L1193.23 -2.38766L1193.23 187.836L1237.01 187.836L1237.01 139.786L1262.56 113.19L1323.68 187.737ZM1060.69 191C1115.17 191 1141.52 163.811 1141.52 132.074C1141.52 62.2726 1030.78 86.4954 1030.78 51.397C1030.78 39.4338 1040.88 29.6458 1066.93 29.6458C1083.77 29.6458 1102 34.4904 1119.73 44.575L1133.3 11.1574C1115.57 -0.0148223 1091.1 -5.65034 1067.13 -5.65034C1012.95 -5.65034 986.802 21.242 986.802 53.671C986.802 124.362 1097.54 99.8427 1097.54 135.435C1097.54 147.102 1086.94 155.802 1060.79 155.802C1037.91 155.802 1013.94 147.695 997.896 136.029L982.939 169.15C1000.08 182.003 1030.48 191 1060.69 191ZM849.319 187.737L893.397 187.737L893.397 33.4028L954.412 33.4028L954.412 -2.48654L788.403 -2.48654L788.403 33.4028L849.418 33.4028L849.418 187.737L849.319 187.737ZM773.347 -2.48654L730.062 -2.48654L679.149 82.0463L628.237 -2.48654L581.386 -2.48654L655.179 119.814L655.179 187.737L699.256 187.737L699.256 120.309L773.347 -2.48654ZM441.624 187.737L581.286 187.737L581.286 151.848L485.702 151.848L485.702 -2.48654L441.624 -2.48654L441.624 187.737ZM262.837 113.487L293.048 40.6203L323.258 113.487L262.837 113.487ZM353.964 187.737L400.221 187.737L315.037 -2.48654L271.454 -2.48654L186.567 187.737L231.735 187.737L248.574 147.003L337.026 147.003L353.964 187.737ZM109.109 145.322C97.9167 151.255 86.8229 153.43 74.8377 153.43C38.3869 153.43 13.0299 128.119 13.0299 92.5264C13.0299 56.4393 38.3869 31.6232 75.333 31.6232C94.648 31.6232 110.694 38.4452 124.561 53.0778L152.89 26.9764C134.368 5.52183 106.633 -5.84808 73.1539 -5.84808C12.4355 -5.84808 -31.6423 35.1825 -31.6423 92.5264C-31.6423 149.87 12.4355 190.901 72.3614 190.901C99.6005 190.901 128.424 182.497 149.423 166.678L149.423 89.5603L109.109 89.5603L109.109 145.322Z" fill="black"/>
</g>
<g opacity="0.06" clip-path="url(#clip2)">
<path d="M1418.67 978.104L1375.39 978.104L1324.49 1062.82L1273.58 978.104L1226.73 978.104L1300.52 1100.66L1300.52 1168.73L1344.59 1168.73L1344.59 1101.16L1418.67 978.104ZM1106.5 1168.73L1150.57 1168.73L1150.57 1014.07L1211.58 1014.07L1211.58 978.104L1045.59 978.104L1045.59 1014.07L1106.6 1014.07L1106.6 1168.73L1106.5 1168.73ZM987.648 1168.73L1039.05 1168.73L955.46 1063.11L1034.4 978.203L985.37 978.203L900.988 1067.27L900.988 978.203L857.212 978.203L857.212 1168.83L900.988 1168.83L900.988 1120.68L926.54 1094.03L987.648 1168.73ZM678.443 1094.32L708.651 1021.3L738.858 1094.32L678.443 1094.32ZM769.659 1168.73L815.912 1168.73L730.737 978.104L687.158 978.104L602.281 1168.73L647.444 1168.73L664.28 1127.91L752.723 1127.91L769.659 1168.73ZM526.316 1047.26C526.316 1067.97 512.748 1080.45 485.809 1080.45L449.857 1080.45L449.857 1014.07L485.809 1014.07C512.748 1014.07 526.316 1026.26 526.316 1047.26ZM574.549 1168.73L531.863 1107.5C556.623 1096.9 571.083 1075.89 571.083 1047.36C571.083 1004.66 539.192 978.203 488.384 978.203L405.883 978.203L405.883 1168.83L449.857 1168.83L449.857 1115.72L488.285 1115.72L490.464 1115.72L527.208 1168.83L574.549 1168.83L574.549 1168.73ZM255.638 1168.73L299.711 1168.73L299.711 1014.07L360.72 1014.07L360.72 978.104L194.728 978.104L194.728 1014.07L255.737 1014.07L255.737 1168.73L255.638 1168.73ZM105.889 978.104L105.889 1093.83L11.2058 978.104L-25.2412 978.104L-25.2412 1168.73L18.3367 1168.73L18.3367 1053.01L113.317 1168.73L149.566 1168.73L149.566 978.104L105.889 978.104ZM-184.103 1134.35C-218.073 1134.35 -243.725 1109.58 -243.725 1073.32C-243.725 1037.15 -218.172 1012.29 -184.103 1012.29C-150.132 1012.29 -124.48 1037.06 -124.48 1073.32C-124.579 1109.58 -150.132 1134.35 -184.103 1134.35ZM-184.103 1172C-124.183 1172 -79.9115 1130.39 -79.9115 1073.42C-79.9115 1016.55 -124.282 974.834 -184.103 974.834C-244.22 974.834 -288.392 1016.74 -288.392 1073.42C-288.392 1129.99 -244.319 1172 -184.103 1172ZM-362.079 1168.73L-310.677 1168.73L-394.267 1063.11L-315.331 978.203L-364.356 978.203L-448.739 1067.27L-448.739 978.203L-492.515 978.203L-492.515 1168.83L-448.739 1168.83L-448.739 1120.68L-423.187 1094.03L-362.079 1168.73ZM-680.197 1168.73L-636.124 1168.73L-636.124 978.104L-680.197 978.104L-680.197 1168.73ZM-772.701 1168.73L-721.299 1168.73L-804.89 1063.11L-725.954 978.203L-774.979 978.203L-859.362 1067.27L-859.362 978.203L-903.138 978.203L-903.138 1168.83L-859.362 1168.83L-859.362 1120.68L-833.809 1094.03L-772.701 1168.73ZM-1035.65 1172C-981.182 1172 -954.837 1144.75 -954.837 1112.95C-954.837 1043 -1065.56 1067.27 -1065.56 1032.1C-1065.56 1020.11 -1055.46 1010.3 -1029.41 1010.3C-1012.58 1010.3 -994.354 1015.16 -976.626 1025.26L-963.058 991.776C-980.786 980.581 -1005.25 974.933 -1029.22 974.933C-1083.39 974.933 -1109.54 1001.88 -1109.54 1034.38C-1109.54 1105.22 -998.811 1080.65 -998.811 1116.32C-998.811 1128.01 -1009.41 1136.73 -1035.56 1136.73C-1058.43 1136.73 -1082.4 1128.6 -1098.45 1116.91L-1113.4 1150.1C-1096.27 1162.98 -1065.86 1172 -1035.65 1172ZM-1247.01 1168.73L-1202.93 1168.73L-1202.93 1014.07L-1141.93 1014.07L-1141.93 978.104L-1307.92 978.104L-1307.92 1014.07L-1246.91 1014.07L-1246.91 1168.73L-1247.01 1168.73ZM-1322.97 978.104L-1366.25 978.104L-1417.16 1062.82L-1468.07 978.104L-1514.91 978.104L-1441.13 1100.66L-1441.13 1168.73L-1397.05 1168.73L-1397.05 1101.16L-1322.97 978.104ZM-1654.66 1168.73L-1515.01 1168.73L-1515.01 1132.76L-1610.59 1132.76L-1610.59 978.104L-1654.66 978.104L-1654.66 1168.73ZM-1833.43 1094.32L-1803.22 1021.3L-1773.01 1094.32L-1833.43 1094.32ZM-1742.31 1168.73L-1696.06 1168.73L-1781.23 978.104L-1824.81 978.104L-1909.69 1168.73L-1864.53 1168.73L-1847.69 1127.91L-1759.25 1127.91L-1742.31 1168.73ZM-1987.14 1126.23C-1998.33 1132.17 -2009.42 1134.35 -2021.41 1134.35C-2057.85 1134.35 -2083.21 1108.99 -2083.21 1073.32C-2083.21 1037.15 -2057.85 1012.29 -2020.91 1012.29C-2001.6 1012.29 -1985.55 1019.12 -1971.69 1033.79L-1943.36 1007.63C-1961.88 986.129 -1989.61 974.735 -2023.09 974.735C-2083.8 974.735 -2127.88 1015.85 -2127.88 1073.32C-2127.88 1130.78 -2083.8 1171.9 -2023.88 1171.9C-1996.65 1171.9 -1967.83 1163.48 -1946.83 1147.63L-1946.83 1070.35L-1987.14 1070.35L-1987.14 1126.23Z" fill="black"/>
<path d="M2845.95 702.27L2802.67 702.27L2751.76 786.982L2700.85 702.27L2654.01 702.27L2727.79 824.83L2727.79 892.897L2771.87 892.897L2771.87 825.325L2845.95 702.27ZM2533.77 892.897L2577.84 892.897L2577.84 738.235L2638.85 738.235L2638.85 702.27L2472.86 702.27L2472.86 738.235L2533.77 738.235L2533.77 892.897ZM2414.92 892.897L2466.33 892.897L2382.83 787.18L2461.77 702.27L2412.74 702.27L2328.36 791.341L2328.36 702.27L2284.59 702.27L2284.59 892.897L2328.36 892.897L2328.36 844.645L2353.91 817.993L2414.92 892.897ZM2105.82 818.489L2136.02 745.468L2166.23 818.489L2105.82 818.489ZM2196.93 892.897L2243.19 892.897L2158.01 702.27L2114.43 702.27L2029.56 892.897L2074.72 892.897L2091.56 852.076L2180 852.076L2196.93 892.897ZM1953.69 771.427C1953.69 792.134 1940.12 804.618 1913.18 804.618L1877.23 804.618L1877.23 738.235L1913.18 738.235C1940.02 738.235 1953.69 750.422 1953.69 771.427ZM2001.82 892.897L1959.14 831.666C1983.9 821.065 1998.36 800.06 1998.36 771.526C1998.36 728.724 1966.47 702.369 1915.66 702.369L1833.16 702.369L1833.16 892.996L1877.23 892.996L1877.23 839.89L1915.66 839.89L1917.84 839.89L1954.58 892.996L2001.82 892.996L2001.82 892.897ZM1682.91 892.897L1726.99 892.897L1726.99 738.235L1788 738.235L1788 702.27L1622 702.27L1622 738.235L1683.01 738.235L1683.01 892.897L1682.91 892.897ZM1533.26 702.27L1533.26 817.993L1438.58 702.27L1402.13 702.27L1402.13 892.897L1445.71 892.897L1445.71 777.173L1540.69 892.897L1576.94 892.897L1576.94 702.27L1533.26 702.27ZM1243.17 858.516C1209.1 858.516 1183.55 833.747 1183.55 797.484C1183.55 761.321 1209.1 736.452 1243.17 736.452C1277.14 736.452 1302.8 761.221 1302.8 797.484C1302.8 833.747 1277.14 858.516 1243.17 858.516ZM1243.17 896.166C1303.09 896.166 1347.36 854.553 1347.36 797.583C1347.36 740.712 1302.99 699 1243.17 699C1183.05 699 1138.88 740.91 1138.88 797.583C1138.88 854.157 1183.05 896.166 1243.17 896.166ZM1065.2 892.897L1116.6 892.897L1033.11 787.18L1112.04 702.27L1063.02 702.27L978.635 791.341L978.635 702.27L934.859 702.27L934.859 892.897L978.635 892.897L978.635 844.645L1004.19 817.993L1065.2 892.897ZM747.078 892.897L791.151 892.897L791.151 702.27L747.078 702.27L747.078 892.897ZM654.574 892.897L705.976 892.897L622.485 787.18L701.42 702.27L652.395 702.27L568.012 791.341L568.012 702.27L524.236 702.27L524.236 892.897L568.012 892.897L568.012 844.645L593.565 817.993L654.574 892.897ZM391.72 896.166C446.192 896.166 472.537 868.92 472.537 837.115C472.537 767.166 361.809 791.44 361.809 756.268C361.809 744.279 371.912 734.47 397.959 734.47C414.796 734.47 433.02 739.325 450.748 749.431L464.317 715.943C446.588 704.747 422.125 699.099 398.157 699.099C343.982 699.099 317.836 726.049 317.836 758.546C317.836 829.387 428.563 804.816 428.563 840.484C428.563 852.175 417.966 860.894 391.819 860.894C368.941 860.894 344.973 852.77 328.928 841.079L313.973 874.27C331.008 887.15 361.512 896.166 391.72 896.166ZM180.268 892.897L224.341 892.897L224.341 738.235L285.35 738.235L285.35 702.27L119.358 702.27L119.358 738.235L180.367 738.235L180.367 892.897L180.268 892.897ZM104.403 702.27L61.1219 702.27L10.2149 786.982L-40.6919 702.27L-87.5382 702.27L-13.7528 824.83L-13.7528 892.897L30.3204 892.897L30.3204 825.325L104.403 702.27ZM-227.384 892.897L-87.7362 892.897L-87.7362 856.931L-183.31 856.931L-183.31 702.27L-227.384 702.27L-227.384 892.897ZM-406.152 818.489L-375.945 745.468L-345.737 818.489L-406.152 818.489ZM-314.936 892.897L-268.683 892.897L-353.859 702.27L-397.436 702.27L-482.314 892.897L-437.152 892.897L-420.315 852.076L-331.871 852.076L-314.936 892.897ZM-559.863 850.392C-571.055 856.337 -582.147 858.516 -594.131 858.516C-630.578 858.516 -655.933 833.152 -655.933 797.484C-655.933 761.32 -630.578 736.452 -593.636 736.452C-574.323 736.452 -558.279 743.288 -544.413 757.952L-516.087 731.795C-534.509 710.394 -562.339 699 -595.815 699C-656.527 699 -700.6 740.118 -700.6 797.583C-700.6 855.049 -656.527 896.166 -596.607 896.166C-569.371 896.166 -540.55 887.744 -519.554 871.892L-519.554 794.611L-559.863 794.611L-559.863 850.392Z" fill="black"/>
</g>
<defs>
<clipPath id="clip0">
<rect width="9405" height="473" fill="white" transform="translate(-1805 231)"/>
</clipPath>
<clipPath id="clip1">
<rect width="9406" height="472" fill="white" transform="translate(-2218 -281)"/>
</clipPath>
<clipPath id="clip2">
<rect width="9405" height="473" fill="white" transform="translate(-4314 699)"/>
</clipPath>
</defs>
</svg>
