<svg width="229" height="21" viewBox="0 0 229 21" fill="none" xmlns="http://www.w3.org/2000/svg">
	<path fill-rule="evenodd" clip-rule="evenodd" d="M0 1.01V19.07C0 19.63 0.45 20.08 1.01 20.08C1.29 20.08 1.54 19.97 1.72 19.79L10.76 10.75C10.94 10.57 11.05 10.32 11.05 10.04C11.05 9.75 10.92 9.48 10.72 9.3L1.72 0.3C1.54 0.11 1.29 0 1.01 0C0.45 0 0 0.45 0 1.01Z" fill="white"/>
	<path fill-rule="evenodd" clip-rule="evenodd" d="M62.0996 1.01V19.07C62.0996 19.63 62.5496 20.08 63.1096 20.08C63.3896 20.08 63.6396 19.97 63.8196 19.79L72.8596 10.75C73.0396 10.57 73.1496 10.32 73.1496 10.04C73.1496 9.75 73.0196 9.48 72.8196 9.3L63.8196 0.3C63.6396 0.11 63.3896 0 63.1096 0C62.5496 0 62.0996 0.45 62.0996 1.01Z" fill="white"/>
	<path fill-rule="evenodd" clip-rule="evenodd" d="M31.0498 1.01V19.07C31.0498 19.63 31.4998 20.08 32.0598 20.08C32.3398 20.08 32.5898 19.97 32.7698 19.79L41.8098 10.75C41.9898 10.57 42.0998 10.32 42.0998 10.04C42.0998 9.75 41.9698 9.48 41.7698 9.3L32.7698 0.3C32.5898 0.11 32.3398 0 32.0598 0C31.4998 0 31.0498 0.45 31.0498 1.01Z" fill="white"/>
	<path fill-rule="evenodd" clip-rule="evenodd" d="M93.1494 1.01V19.07C93.1494 19.63 93.5994 20.08 94.1594 20.08C94.4394 20.08 94.6894 19.97 94.8694 19.79L103.909 10.75C104.089 10.57 104.199 10.32 104.199 10.04C104.199 9.75 104.069 9.48 103.869 9.3L94.8694 0.3C94.6894 0.11 94.4394 0 94.1594 0C93.5994 0 93.1494 0.45 93.1494 1.01Z" fill="white"/>
	<path fill-rule="evenodd" clip-rule="evenodd" d="M124 1.01V19.07C124 19.63 124.45 20.08 125.01 20.08C125.29 20.08 125.54 19.97 125.72 19.79L134.76 10.75C134.94 10.57 135.05 10.32 135.05 10.04C135.05 9.75 134.92 9.48 134.72 9.3L125.72 0.3C125.54 0.11 125.29 0 125.01 0C124.45 0 124 0.45 124 1.01Z" fill="white"/>
	<path fill-rule="evenodd" clip-rule="evenodd" d="M186.1 1.01V19.07C186.1 19.63 186.55 20.08 187.11 20.08C187.39 20.08 187.64 19.97 187.82 19.79L196.86 10.75C197.04 10.57 197.15 10.32 197.15 10.04C197.15 9.75 197.02 9.48 196.82 9.3L187.82 0.3C187.64 0.11 187.39 0 187.11 0C186.55 0 186.1 0.45 186.1 1.01Z" fill="white"/>
	<path fill-rule="evenodd" clip-rule="evenodd" d="M155.05 1.01V19.07C155.05 19.63 155.5 20.08 156.06 20.08C156.34 20.08 156.59 19.97 156.77 19.79L165.81 10.75C165.99 10.57 166.1 10.32 166.1 10.04C166.1 9.75 165.97 9.48 165.77 9.3L156.77 0.3C156.59 0.11 156.34 0 156.06 0C155.5 0 155.05 0.45 155.05 1.01Z" fill="white"/>
	<path fill-rule="evenodd" clip-rule="evenodd" d="M217.149 1.01V19.07C217.149 19.63 217.599 20.08 218.159 20.08C218.439 20.08 218.689 19.97 218.869 19.79L227.909 10.75C228.089 10.57 228.199 10.32 228.199 10.04C228.199 9.75 228.069 9.48 227.869 9.3L218.869 0.3C218.689 0.11 218.439 0 218.159 0C217.599 0 217.149 0.45 217.149 1.01Z" fill="white"/>
</svg>
